<svg version="1.1" id="Layer_1" xmlns="http://www.w3.org/2000/svg" xmlns:xlink="http://www.w3.org/1999/xlink" x="0px" y="0px"
	 width="100%" viewBox="0 0 3750 3750" enable-background="new 0 0 3750 3750" xml:space="preserve">
<path fill="#000000" opacity="1.000000" stroke="none" 
	d="
M2102.000000,3752.000000 
	C1401.333374,3752.000000 701.666687,3752.000000 2.000000,3752.000000 
	C2.000000,2502.000000 2.000000,1252.000000 2.000000,2.000000 
	C1252.000000,2.000000 2502.000000,2.000000 3752.000000,2.000000 
	C3752.000000,1252.000000 3752.000000,2502.000000 3752.000000,3752.000000 
	C3202.333252,3752.000000 2652.666748,3752.000000 2102.000000,3752.000000 
M1778.621460,2562.871338 
	C1781.288330,2573.455322 1784.685791,2583.918457 1786.464111,2594.649658 
	C1789.776733,2614.640381 1792.436768,2634.752686 1794.826538,2654.878662 
	C1797.134766,2674.318359 1798.740112,2693.840820 1800.706909,2713.321777 
	C1801.007568,2716.299805 1801.717529,2719.236328 1802.024780,2722.213867 
	C1802.877197,2730.476318 1803.696899,2738.744629 1804.320923,2747.026367 
	C1804.421875,2748.366455 1803.456421,2749.786621 1802.515869,2752.539795 
	C1782.802734,2710.550049 1763.572876,2670.092285 1744.785156,2629.429932 
	C1725.974487,2588.718262 1707.605225,2547.802979 1688.102539,2504.909180 
	C1687.852295,2510.117920 1687.680298,2513.063721 1687.574219,2516.011719 
	C1686.937134,2533.702637 1688.746338,2551.206543 1690.797852,2568.765869 
	C1692.965088,2587.315430 1697.223022,2605.335693 1702.069092,2623.268799 
	C1705.244141,2635.018555 1708.725586,2646.686523 1712.151123,2658.367188 
	C1715.115601,2668.476318 1717.930908,2678.640137 1721.284668,2688.621338 
	C1726.423584,2703.915283 1732.108643,2719.025635 1737.289551,2734.306152 
	C1740.583984,2744.021973 1743.320679,2753.925293 1746.422974,2763.708252 
	C1751.500366,2779.720215 1757.221191,2795.552246 1761.660889,2811.736816 
	C1766.894409,2830.814697 1771.219604,2850.149658 1775.616821,2869.446289 
	C1778.343750,2881.413574 1780.341797,2893.545166 1782.904419,2905.552246 
	C1786.092163,2920.488281 1779.574219,2930.964355 1768.111084,2939.518555 
	C1761.015625,2944.813477 1753.266113,2949.669678 1747.550049,2956.237061 
	C1742.936523,2961.537598 1738.263306,2962.710449 1732.036865,2962.767090 
	C1692.087158,2963.129639 1652.139282,2963.704590 1612.190186,2964.138428 
	C1581.545166,2964.471191 1550.896118,2964.518555 1520.254028,2965.011230 
	C1462.984253,2965.932129 1405.716064,2966.973389 1348.451538,2968.177734 
	C1306.258423,2969.064941 1264.015381,2968.209473 1221.917114,2972.586426 
	C1208.042969,2974.029297 1193.948608,2973.220459 1180.008789,2974.205322 
	C1166.229858,2975.179199 1152.519043,2977.119141 1138.448120,2978.671631 
	C1142.019287,2984.840332 1142.005981,2984.971436 1147.456299,2985.526367 
	C1158.036865,2986.603271 1168.615234,2987.875977 1179.227661,2988.433594 
	C1214.424683,2990.282715 1249.627441,2992.080078 1284.844971,2993.465576 
	C1325.056519,2995.047363 1365.341309,2992.901123 1405.547119,2996.673340 
	C1424.394409,2998.442139 1443.487671,2997.698486 1462.471558,2997.882080 
	C1514.781616,2998.387695 1567.095093,2998.599365 1619.402832,2999.269531 
	C1676.342285,2999.999023 1733.272461,2999.118408 1790.236816,3000.443359 
	C1848.450684,3001.797119 1906.755493,3001.716309 1965.061157,2999.622803 
	C2022.977905,2997.543213 2081.010498,2998.674072 2138.992432,2998.425049 
	C2184.651367,2998.229004 2230.310547,2998.079590 2275.969482,2997.889648 
	C2278.631836,2997.878662 2281.293701,2997.693359 2283.955566,2997.580566 
	C2306.848877,2996.607910 2329.735107,2995.360840 2352.637939,2994.738525 
	C2374.282959,2994.149658 2395.946533,2994.258545 2417.600830,2993.979248 
	C2429.927002,2993.820312 2442.260010,2993.710205 2454.574219,2993.203369 
	C2476.827393,2992.287842 2499.077637,2991.249023 2521.312500,2989.968506 
	C2543.872803,2988.669434 2566.413330,2987.025635 2588.960693,2985.508301 
	C2592.913330,2985.242188 2595.840088,2983.837646 2595.845947,2978.919189 
	C2586.920166,2977.590332 2578.463623,2975.733643 2569.921143,2975.166748 
	C2538.423096,2973.076416 2506.913330,2971.014160 2475.376465,2969.696533 
	C2441.129883,2968.265381 2406.850830,2967.566162 2372.580811,2966.756348 
	C2348.275146,2966.181641 2323.961426,2965.937256 2299.650879,2965.574951 
	C2267.016357,2965.088135 2234.381104,2964.622070 2201.746338,2964.161621 
	C2166.797607,2963.668457 2131.850098,2963.042725 2096.899658,2962.755859 
	C2068.569336,2962.523193 2040.234131,2962.844727 2011.904053,2962.587891 
	C2006.349731,2962.537598 2000.178711,2962.241211 1995.371460,2959.869873 
	C1974.497559,2949.573242 1953.724854,2938.990479 1933.505615,2927.475342 
	C1919.465088,2919.479004 1906.052490,2910.251221 1892.990723,2900.709473 
	C1883.793579,2893.990723 1876.784302,2885.318604 1875.064331,2873.129883 
	C1872.516724,2855.075928 1868.891724,2837.172363 1866.423828,2819.109375 
	C1863.325928,2796.436279 1860.545776,2773.704346 1858.356079,2750.927734 
	C1856.480713,2731.422363 1854.849731,2711.832764 1854.490356,2692.254883 
	C1853.751587,2652.002686 1854.350952,2611.810791 1861.051025,2571.868652 
	C1864.119263,2553.578369 1865.417358,2534.925781 1866.447632,2516.378174 
	C1867.388062,2499.452148 1865.658569,2482.889893 1858.391846,2466.885254 
	C1851.514038,2451.737305 1843.004272,2437.798584 1833.347290,2424.410889 
	C1830.446289,2420.389160 1828.344116,2416.576416 1828.971558,2410.859863 
	C1830.346802,2398.329346 1830.547241,2385.657471 1830.939453,2373.034424 
	C1831.808105,2345.074707 1832.562988,2317.110840 1833.183105,2289.144775 
	C1833.262817,2285.549561 1833.070190,2281.563721 1831.622681,2278.388428 
	C1826.302368,2266.717773 1821.187866,2255.062012 1818.865601,2242.317871 
	C1816.849487,2231.253662 1813.531250,2220.366211 1812.299561,2209.233154 
	C1810.260010,2190.795166 1808.670288,2172.238770 1808.271240,2153.702881 
	C1807.626465,2123.750732 1807.675781,2093.765381 1808.295044,2063.812012 
	C1808.574829,2050.282471 1810.927979,2036.795654 1812.347168,2023.290039 
	C1812.416748,2022.627808 1812.508057,2021.962524 1812.660522,2021.315430 
	C1816.590576,2004.620361 1820.050293,1987.793457 1824.657959,1971.287109 
	C1827.195679,1962.195435 1831.416504,1953.526855 1835.431641,1944.925659 
	C1836.492188,1942.653687 1839.379395,1940.308838 1841.817993,1939.773315 
	C1850.324707,1937.904907 1858.536133,1940.060425 1865.419556,1944.996948 
	C1869.173950,1947.689575 1872.961548,1951.981567 1874.138916,1956.265381 
	C1876.321167,1964.206055 1877.202515,1972.644165 1877.557617,1980.920898 
	C1878.656494,2006.528320 1879.670166,2032.154297 1879.859863,2057.779541 
	C1879.948120,2069.691895 1879.082764,2081.816162 1876.838501,2093.496338 
	C1872.850708,2114.249023 1867.524048,2134.746582 1862.666748,2155.329346 
	C1861.315918,2161.053955 1859.488892,2166.666748 1858.154297,2172.394531 
	C1855.528076,2183.663818 1853.031738,2194.964600 1850.623169,2206.282471 
	C1850.004028,2209.191895 1848.962524,2212.371094 1851.825317,2215.629639 
	C1853.252441,2212.492188 1854.264404,2210.080811 1855.425171,2207.743164 
	C1870.044800,2178.302979 1888.234497,2150.971436 1905.399048,2123.029297 
	C1916.728516,2104.586182 1928.290527,2086.248291 1938.677368,2067.276855 
	C1945.607666,2054.618896 1948.719727,2040.092285 1947.396973,2025.858398 
	C1945.960815,2010.404053 1941.364868,1995.264771 1938.609619,1979.905151 
	C1936.211792,1966.538086 1933.295410,1953.107544 1932.690430,1939.611694 
	C1931.758911,1918.836792 1936.932129,1898.627441 1943.393921,1879.090576 
	C1948.228271,1864.474243 1955.404541,1850.634399 1961.501953,1836.433350 
	C1968.126953,1821.003906 1976.113525,1806.335571 1987.435303,1793.850830 
	C1998.109009,1782.080322 2010.546875,1773.807495 2027.441650,1772.917114 
	C2047.697510,1771.849609 2063.692139,1780.522583 2078.982910,1792.108032 
	C2082.563477,1794.820801 2086.658203,1797.231812 2090.896729,1798.622559 
	C2100.639893,1801.819336 2110.554443,1804.557251 2120.513916,1807.017822 
	C2136.919189,1811.070923 2153.292969,1815.440796 2169.907227,1818.402222 
	C2185.911377,1821.254883 2202.239746,1822.234375 2218.362061,1824.490845 
	C2258.722168,1830.139771 2298.650391,1826.986206 2338.092529,1817.944580 
	C2359.229980,1813.099121 2379.607666,1805.386841 2397.932861,1793.455933 
	C2417.427246,1780.763672 2433.732178,1764.907349 2445.451660,1744.404419 
	C2451.423340,1733.957397 2455.263672,1722.834717 2459.553467,1711.756348 
	C2461.807373,1705.935791 2462.338623,1700.505005 2461.583008,1694.546265 
	C2460.088135,1694.466064 2459.058105,1694.188110 2458.151611,1694.411499 
	C2456.568848,1694.801270 2455.042236,1695.451782 2453.525879,1696.075317 
	C2436.046875,1703.264404 2417.521973,1706.366943 2399.010986,1705.267578 
	C2381.339844,1704.218018 2363.714844,1700.843140 2348.163330,1690.537964 
	C2341.121826,1685.872070 2334.753662,1680.741943 2330.182373,1673.923950 
	C2325.948975,1667.610229 2323.240234,1660.427368 2324.741943,1652.306396 
	C2326.365479,1643.527344 2328.234375,1634.720215 2328.860107,1625.845215 
	C2330.151367,1607.527466 2329.013672,1589.481567 2319.332275,1573.036377 
	C2315.540771,1566.596069 2311.123535,1561.115112 2303.298828,1559.398193 
	C2296.897461,1557.993408 2291.619385,1560.557983 2290.648926,1566.946289 
	C2289.456543,1574.797241 2288.544922,1582.846802 2288.909424,1590.746094 
	C2289.691650,1607.683960 2291.353760,1624.581787 2292.694580,1641.493042 
	C2293.053955,1646.024536 2293.553467,1650.544800 2293.990234,1655.086792 
	C2286.846680,1658.166870 2280.082031,1657.240234 2273.798828,1655.536133 
	C2252.798340,1649.839844 2231.958008,1643.551025 2211.061523,1637.471802 
	C2194.061035,1632.525879 2187.250732,1635.419067 2178.084229,1651.229614 
	C2175.293457,1656.043091 2172.321289,1660.788574 2168.986572,1665.231201 
	C2167.700928,1666.944092 2165.176514,1667.727051 2162.306885,1669.493896 
	C2161.956055,1665.389526 2161.436523,1663.063721 2161.618164,1660.793945 
	C2162.419434,1650.793213 2161.530029,1641.260864 2157.596191,1631.736206 
	C2153.757812,1622.442627 2147.342773,1616.261719 2138.169922,1616.232544 
	C2134.788330,1629.022827 2139.312012,1642.712036 2135.033691,1657.440308 
	C2132.029053,1649.958618 2129.801758,1644.412720 2127.040527,1637.537109 
	C2124.021729,1641.546753 2122.372559,1644.382324 2120.109863,1646.588379 
	C2116.857178,1649.760010 2113.520264,1653.189331 2109.554932,1655.196655 
	C2104.886230,1657.560303 2099.600098,1658.992188 2094.420654,1660.006226 
	C2077.061768,1663.404785 2058.606445,1660.251709 2049.210693,1641.736816 
	C2045.973999,1635.358643 2042.583984,1628.667480 2041.352051,1621.747681 
	C2039.085205,1609.016235 2038.204956,1596.023804 2037.056885,1583.112427 
	C2036.295654,1574.552490 2034.660645,1573.553589 2026.490479,1576.989868 
	C2017.001221,1580.980957 2010.366455,1588.594604 2004.869385,1596.414062 
	C1991.295410,1615.723633 1985.272705,1637.560547 1987.230591,1661.360596 
	C1987.459351,1664.141724 1986.877930,1666.989502 1986.655762,1670.032104 
	C1969.679810,1669.743408 1954.397095,1665.622192 1940.491821,1659.215698 
	C1926.880859,1652.944946 1913.196045,1648.139282 1898.659058,1649.227783 
	C1878.880859,1650.708618 1859.209839,1654.102783 1839.619629,1657.424072 
	C1828.527222,1659.304688 1817.737671,1662.905884 1806.720947,1665.317261 
	C1796.666870,1667.517822 1786.340576,1668.584106 1776.400146,1671.171753 
	C1758.166382,1675.918335 1740.938599,1673.587280 1723.946411,1666.102173 
	C1714.757202,1662.054199 1708.187378,1655.505005 1703.312378,1647.009399 
	C1695.774658,1633.873901 1691.176147,1619.853027 1690.463013,1604.608276 
	C1690.109131,1597.041016 1689.308105,1589.494751 1688.603394,1580.601685 
	C1685.126221,1581.669312 1682.119995,1581.949463 1679.847656,1583.388306 
	C1653.976074,1599.771118 1626.984375,1614.112915 1598.833374,1626.032227 
	C1583.383423,1632.573975 1567.371338,1637.908325 1549.858398,1636.573120 
	C1539.855347,1635.810303 1532.414185,1631.431152 1528.470825,1623.009644 
	C1524.593384,1614.729126 1521.988770,1605.622681 1520.302612,1596.602539 
	C1518.049927,1584.551880 1517.793091,1572.132080 1515.622925,1560.060791 
	C1513.411621,1547.761230 1507.742310,1537.461426 1495.968628,1531.031860 
	C1484.876343,1524.974609 1473.411011,1524.281860 1461.336426,1525.833740 
	C1447.489014,1527.613647 1433.643066,1529.973877 1419.732056,1530.564209 
	C1395.791870,1531.580322 1371.942749,1530.555542 1348.479004,1524.409790 
	C1329.676392,1519.484985 1312.086792,1512.167358 1296.992310,1499.941895 
	C1271.727539,1479.479248 1258.750000,1452.724365 1257.549438,1420.136353 
	C1256.869751,1401.683105 1260.209473,1384.017578 1265.316284,1366.364990 
	C1271.246826,1345.865723 1280.420288,1326.957397 1291.030640,1308.650269 
	C1292.562500,1306.006958 1295.441772,1303.810791 1298.178711,1302.253662 
	C1316.767944,1291.677734 1337.533813,1288.445923 1358.248657,1286.909790 
	C1392.450684,1284.373657 1426.708374,1285.104980 1460.906982,1288.768311 
	C1479.364624,1290.745483 1497.972290,1291.353638 1516.519653,1292.453613 
	C1542.729980,1294.007812 1568.943726,1295.509521 1595.162598,1296.909180 
	C1611.441284,1297.778198 1627.736084,1298.343018 1644.016602,1299.179565 
	C1660.283936,1300.015381 1676.542236,1301.026367 1692.805176,1301.948608 
	C1709.691162,1302.906250 1726.578003,1303.849731 1743.070679,1304.777222 
	C1743.922241,1306.671509 1744.671143,1307.564209 1744.676270,1308.461182 
	C1744.808350,1331.785645 1744.925049,1355.110840 1744.883301,1378.435425 
	C1744.873901,1383.655884 1741.926025,1386.136597 1736.586060,1386.183228 
	C1733.635010,1386.208862 1730.664307,1386.902344 1727.748901,1387.515747 
	C1718.020386,1389.562378 1708.403931,1392.458008 1698.577393,1393.655151 
	C1680.472656,1395.860596 1662.264282,1397.294067 1644.070923,1398.675415 
	C1622.040405,1400.348267 1600.230225,1397.395142 1578.718018,1393.370972 
	C1566.514282,1391.088135 1554.781372,1386.145752 1542.941040,1382.095093 
	C1521.465210,1374.747803 1502.960815,1362.443359 1486.965820,1346.578979 
	C1478.687500,1338.368286 1471.541626,1329.015869 1463.710815,1319.979370 
	C1457.836548,1325.653076 1453.222290,1332.445557 1449.059570,1339.939453 
	C1439.264282,1357.573486 1446.073242,1378.591064 1461.924072,1389.661499 
	C1470.794556,1395.856567 1479.626465,1402.150635 1488.059082,1408.919067 
	C1503.195557,1421.068970 1517.671753,1434.065552 1533.114136,1445.800293 
	C1541.098267,1451.867432 1550.331787,1456.462402 1559.412842,1460.874756 
	C1573.620728,1467.777954 1589.300171,1469.776489 1604.681396,1471.668091 
	C1616.426636,1473.112549 1628.697144,1473.273193 1640.379150,1471.570190 
	C1659.611816,1468.766602 1678.599487,1464.610107 1696.791260,1456.839355 
	C1710.618530,1450.932983 1725.528564,1447.599609 1739.848022,1442.796875 
	C1754.527588,1437.873291 1769.452637,1439.229736 1784.330933,1440.746460 
	C1789.496948,1441.273071 1794.828369,1442.793701 1799.505005,1445.057129 
	C1820.420288,1455.179199 1838.702881,1469.059937 1855.153320,1485.689453 
	C1863.141968,1478.931396 1867.819092,1469.968262 1869.418213,1460.387695 
	C1872.516113,1441.829224 1871.069214,1423.342041 1864.057495,1405.533203 
	C1860.556641,1396.641602 1857.118164,1387.683105 1854.447510,1378.522827 
	C1852.792969,1372.847900 1852.279053,1366.829590 1856.990967,1361.629639 
	C1864.012451,1353.880859 1869.950806,1344.979248 1877.713501,1338.108765 
	C1894.371704,1323.364990 1913.997681,1323.332886 1930.660522,1339.660767 
	C1943.986694,1352.719238 1948.964966,1368.570312 1945.946411,1386.754395 
	C1942.681641,1406.421631 1938.861694,1425.932861 1940.899292,1446.101807 
	C1942.974243,1466.639771 1951.140381,1483.761841 1968.037476,1495.811646 
	C1972.350342,1498.887207 1976.895752,1504.292725 1984.525635,1501.337646 
	C1982.497070,1496.877075 1980.967529,1492.528442 1978.660034,1488.641602 
	C1973.631592,1480.171631 1973.176270,1471.135864 1974.658081,1461.819580 
	C1975.908569,1453.957520 1977.526733,1446.154541 1978.906494,1438.312256 
	C1980.343994,1430.142456 1981.028931,1421.776123 1983.200439,1413.811523 
	C1990.011230,1388.832520 1987.481323,1364.540283 1979.270142,1340.427124 
	C1976.992310,1333.738159 1975.233765,1326.872314 1973.002930,1319.292236 
	C1976.990845,1318.921753 1979.590332,1318.359375 1982.153564,1318.493164 
	C2002.026245,1319.531372 2021.885010,1320.850220 2041.761963,1321.786255 
	C2056.055420,1322.459595 2070.373291,1323.125122 2084.675049,1323.025024 
	C2163.915039,1322.470093 2243.176270,1324.721558 2322.390869,1320.086060 
	C2350.954590,1318.414551 2379.667725,1319.122437 2408.313232,1319.085571 
	C2429.624756,1319.058228 2450.939941,1319.442139 2472.248047,1319.894165 
	C2496.843018,1320.415894 2521.431885,1321.238159 2546.024658,1321.885376 
	C2577.644531,1322.717285 2609.264893,1323.539062 2640.887451,1324.255737 
	C2643.815674,1324.322266 2647.913574,1324.700439 2649.489746,1323.047241 
	C2654.873535,1317.400757 2661.743652,1318.860474 2669.161621,1317.896973 
	C2670.583008,1314.248047 2673.015381,1310.451782 2673.453369,1306.437744 
	C2675.001465,1292.253784 2676.497314,1278.011230 2676.860840,1263.761597 
	C2677.645020,1233.006592 2677.024658,1202.205322 2680.654541,1171.114258 
	C2678.493408,1174.260498 2676.014160,1176.948364 2674.579346,1180.110107 
	C2666.040527,1198.930054 2657.929688,1217.945435 2649.271484,1236.709106 
	C2645.837646,1244.151245 2641.675049,1251.310669 2637.269287,1258.232910 
	C2634.159424,1263.118896 2628.628662,1263.383667 2625.875977,1258.987183 
	C2623.460205,1255.128784 2620.925781,1250.825806 2620.307861,1246.455566 
	C2618.263672,1231.997437 2617.065918,1217.419556 2615.536377,1202.888428 
	C2614.702881,1194.972412 2613.494141,1187.075317 2613.111572,1179.137939 
	C2612.687988,1170.348511 2613.014648,1161.522949 2613.014648,1152.298950 
	C2616.114258,1152.157104 2618.737305,1151.843872 2621.343506,1151.947876 
	C2646.580811,1152.952759 2671.816650,1154.000122 2697.050049,1155.099609 
	C2704.804199,1155.437500 2711.153076,1158.000854 2717.491455,1163.342407 
	C2731.330078,1175.005005 2744.756104,1187.014771 2757.570312,1199.786621 
	C2778.892578,1221.038330 2797.702148,1244.274170 2812.451172,1270.504395 
	C2821.123779,1285.928345 2828.829102,1301.949219 2836.108887,1318.089966 
	C2845.217041,1338.284424 2847.962402,1359.188354 2842.817627,1381.309204 
	C2839.004150,1397.705444 2838.732178,1414.971558 2846.740967,1430.192627 
	C2851.704590,1439.625977 2850.692871,1448.332886 2848.684814,1457.142944 
	C2844.261963,1476.545166 2838.666260,1495.678101 2833.651367,1514.947510 
	C2830.716553,1526.224609 2837.992676,1543.769287 2853.620117,1548.192627 
	C2868.715088,1552.464966 2883.193359,1551.541016 2896.822998,1543.699219 
	C2915.314941,1533.059937 2928.166992,1517.940918 2932.438965,1496.493042 
	C2933.903076,1489.142578 2936.719971,1486.867065 2943.565918,1490.441284 
	C2955.604492,1496.726562 2966.362305,1492.276489 2976.738770,1487.461670 
	C2993.109619,1479.865356 3004.079590,1467.016724 3008.825928,1449.035645 
	C3011.570801,1448.546509 3014.294189,1448.443604 3016.732666,1447.556763 
	C3024.964600,1444.562744 3034.077148,1443.083496 3038.113281,1433.356201 
	C3044.669189,1417.557373 3041.458008,1406.579590 3030.180420,1395.416382 
	C3024.660645,1389.952637 3024.260742,1385.394775 3025.234131,1378.770142 
	C3027.501465,1363.343872 3029.647949,1347.863403 3030.867188,1332.328247 
	C3032.716797,1308.756348 3031.851807,1285.226318 3029.331543,1261.646240 
	C3027.003174,1239.859375 3023.308350,1218.608887 3016.626709,1197.647217 
	C3010.768066,1179.267334 3002.914795,1162.274170 2990.540771,1147.566406 
	C2986.578369,1142.856812 2985.894287,1137.884521 2987.427979,1132.745239 
	C2992.047607,1117.263184 2997.099609,1101.907593 3002.155518,1086.559448 
	C3005.110840,1077.587646 3008.787354,1068.838867 3011.435547,1059.783936 
	C3015.036377,1047.471802 3017.844238,1034.930176 3021.210693,1022.546387 
	C3025.765381,1005.792236 3028.262939,988.778870 3027.774658,971.416626 
	C3027.696533,968.637451 3026.617432,965.517700 3025.041016,963.211975 
	C3017.445312,952.101990 3009.864502,940.947815 3001.570801,930.363770 
	C2997.317383,924.935730 2992.032471,920.044495 2986.427979,915.999268 
	C2972.070312,905.635803 2956.199463,907.937378 2940.746094,912.672363 
	C2926.907715,916.912598 2913.566650,922.758301 2899.780518,927.194946 
	C2894.858887,928.778931 2892.291992,931.551758 2891.685547,936.033081 
	C2889.904297,949.193542 2886.994385,962.441711 2887.292725,975.592834 
	C2887.902588,1002.488403 2890.122314,1029.357422 2892.068359,1056.208984 
	C2893.158691,1071.255127 2890.085449,1083.459717 2875.264160,1091.070923 
	C2864.392090,1096.653931 2853.011963,1096.658691 2844.337402,1088.383301 
	C2837.385010,1081.750977 2831.784180,1073.987183 2828.047852,1065.007690 
	C2825.271240,1058.335815 2822.836670,1051.478149 2819.513428,1045.085938 
	C2811.277832,1029.245117 2796.836914,1025.234131 2777.727539,1028.906982 
	C2764.496582,1031.449951 2752.072510,1036.927124 2739.892822,1042.749268 
	C2725.367188,1049.692871 2710.864502,1056.690552 2696.223633,1063.383911 
	C2683.465332,1069.216675 2670.631592,1071.814209 2656.880371,1065.476196 
	C2645.227051,1060.105103 2640.062988,1050.357300 2643.542969,1038.224365 
	C2646.263428,1028.740112 2652.330078,1021.367126 2657.630615,1013.398376 
	C2661.791016,1007.143860 2667.336426,1005.175171 2674.272217,1004.955750 
	C2689.883789,1004.461975 2705.490967,1003.835815 2721.097900,1003.207825 
	C2737.723633,1002.538879 2754.477783,1002.478088 2770.608887,997.872620 
	C2781.036377,994.895630 2791.266846,990.948792 2798.406250,981.997070 
	C2803.539307,975.561035 2808.556396,969.031433 2813.538818,962.477661 
	C2814.583984,961.103088 2815.250000,959.440308 2816.622559,956.942810 
	C2813.101074,956.942810 2810.755615,956.523071 2808.617432,957.011475 
	C2795.710938,959.959290 2782.872803,963.206726 2769.968506,966.164795 
	C2762.854004,967.795715 2755.657715,969.069885 2748.493896,970.483032 
	C2736.478760,972.852966 2724.532471,975.712891 2712.425049,977.440063 
	C2696.307373,979.739441 2680.062256,981.145142 2663.874023,982.953369 
	C2662.229004,983.137085 2660.606689,983.545410 2658.959717,983.683960 
	C2644.455078,984.903625 2629.949463,986.110901 2615.435791,987.214600 
	C2614.603271,987.277832 2613.699463,986.406433 2611.745117,985.426880 
	C2614.563232,962.181641 2617.413330,938.670898 2620.368896,914.288208 
	C2623.461670,915.094910 2625.586670,915.122803 2627.062744,916.115967 
	C2641.537109,925.855225 2655.879883,935.789307 2670.312500,945.591125 
	C2675.385254,949.036072 2680.602051,952.268677 2685.753174,955.598267 
	C2686.188232,952.676514 2685.566895,951.182312 2684.681396,949.865845 
	C2674.616943,934.900635 2664.508545,919.964905 2654.418701,905.016663 
	C2646.877441,893.844299 2639.214844,882.750732 2631.860596,871.456421 
	C2627.624023,864.950439 2621.964111,861.935669 2614.286377,862.738831 
	C2611.659668,863.013672 2609.022461,863.333313 2606.442139,863.878235 
	C2598.326172,865.591858 2590.291992,867.778320 2582.115723,869.093323 
	C2575.754150,870.116516 2570.785156,871.831970 2568.762695,878.872681 
	C2567.051514,884.829346 2563.867432,890.362793 2562.154785,896.319214 
	C2558.796631,907.998108 2555.657471,919.764343 2553.066650,931.633850 
	C2548.963379,950.430908 2544.659424,969.231812 2541.763184,988.232727 
	C2537.859131,1013.846436 2535.212402,1039.651733 2532.018311,1065.373779 
	C2531.854248,1066.696167 2531.597168,1068.006836 2531.416504,1069.327515 
	C2529.208496,1085.472534 2526.987793,1101.615723 2524.809570,1117.764771 
	C2523.038086,1130.897949 2521.563721,1144.077026 2519.482422,1157.160156 
	C2518.322510,1164.451904 2516.191895,1171.589233 2514.498779,1178.796143 
	C2503.118652,1160.932617 2498.937012,1140.929443 2495.043213,1121.146729 
	C2491.074219,1100.982178 2488.247559,1080.434082 2487.041016,1059.929199 
	C2485.831543,1039.374390 2486.121338,1018.573181 2487.817139,998.050415 
	C2489.488770,977.824646 2493.746582,957.812622 2497.057373,936.496460 
	C2489.806641,938.653625 2486.495361,943.344482 2482.964600,947.285767 
	C2459.399902,973.589905 2438.934082,1002.290100 2419.894531,1031.928101 
	C2397.166992,1067.306274 2375.474854,1103.348267 2353.136963,1138.978760 
	C2347.878174,1147.366943 2342.105225,1155.476440 2335.996094,1163.265137 
	C2333.676514,1166.222168 2331.617432,1171.339478 2324.824219,1168.653809 
	C2324.824219,1166.153320 2324.288818,1163.190430 2324.910645,1160.494263 
	C2329.152832,1142.097900 2333.195557,1123.635864 2338.191162,1105.439087 
	C2341.915283,1091.873413 2344.666016,1078.308838 2345.105957,1064.227051 
	C2345.323486,1057.276855 2346.401611,1050.354614 2347.058594,1043.416748 
	C2348.706299,1026.021606 2350.336182,1008.624634 2352.144775,989.405212 
	C2346.605225,993.034668 2342.191162,996.147400 2337.570312,998.915588 
	C2318.372070,1010.416260 2299.087891,1021.772705 2279.881836,1033.260132 
	C2260.989990,1044.559326 2240.821289,1053.187012 2220.493408,1061.405884 
	C2202.426270,1068.710571 2184.242676,1075.868042 2164.804932,1078.827393 
	C2149.752930,1081.119141 2134.720459,1083.907837 2119.571777,1085.046875 
	C2111.483643,1085.655029 2103.075684,1083.691284 2094.981689,1082.051636 
	C2087.582764,1080.552612 2080.278564,1078.293945 2073.171387,1075.712891 
	C2062.047363,1071.672974 2053.478516,1063.767212 2045.118652,1055.729736 
	C2040.584595,1051.370483 2035.222900,1048.475708 2029.069336,1049.474731 
	C2023.249146,1050.419678 2017.454224,1052.404907 2012.044189,1054.820068 
	C1997.608521,1061.264404 1983.414917,1068.248535 1969.070557,1074.900635 
	C1953.939331,1081.917603 1937.890381,1083.630493 1922.734497,1077.115112 
	C1912.986694,1072.924683 1904.069702,1073.490845 1894.744019,1075.240479 
	C1878.174927,1078.348999 1861.748657,1082.211670 1845.238525,1085.642944 
	C1832.570923,1088.275635 1819.854248,1090.672241 1807.182373,1093.284790 
	C1799.414062,1094.886597 1791.703979,1096.770630 1783.940674,1098.398682 
	C1773.557251,1100.576050 1763.127075,1102.534058 1752.755005,1104.762329 
	C1743.674805,1106.713135 1734.684204,1109.091309 1725.585693,1110.944580 
	C1715.494385,1112.999878 1705.306152,1114.574341 1695.194458,1116.535156 
	C1674.974609,1120.455933 1654.784546,1124.529663 1634.568970,1128.472168 
	C1626.765259,1129.994019 1618.930542,1131.359985 1611.100952,1132.746216 
	C1596.443237,1135.341553 1581.813354,1138.119141 1567.107544,1140.407471 
	C1553.982300,1142.450195 1540.590088,1143.099731 1527.644775,1145.890869 
	C1513.409180,1148.959717 1499.191895,1148.035767 1484.934204,1148.320190 
	C1480.019653,1148.418335 1477.502686,1145.694092 1477.177612,1141.068726 
	C1476.874512,1136.755737 1477.030762,1132.410156 1476.990112,1128.078979 
	C1476.890503,1117.461182 1475.333496,1116.142456 1464.654907,1116.734741 
	C1449.381592,1117.582031 1434.067627,1117.861084 1418.825439,1119.068359 
	C1398.628662,1120.668091 1378.374878,1122.187378 1358.351318,1125.136597 
	C1341.709473,1127.587524 1325.272827,1131.682983 1308.910645,1135.719971 
	C1286.491211,1141.251343 1264.227905,1147.415039 1241.898315,1153.310181 
	C1226.226807,1157.447510 1210.560425,1161.604370 1194.884033,1165.723389 
	C1185.931396,1168.075684 1176.986938,1170.466187 1167.990967,1172.642334 
	C1164.357178,1173.521240 1160.433105,1175.249390 1156.221313,1170.933594 
	C1160.893677,1167.224487 1164.857056,1163.247070 1169.542236,1160.501465 
	C1190.780029,1148.055664 1212.271362,1136.043335 1233.553223,1123.671753 
	C1238.578247,1120.750610 1243.145386,1117.042236 1249.934082,1112.287598 
	C1240.406250,1110.113770 1233.419800,1107.763550 1226.266602,1107.020874 
	C1197.523315,1104.037109 1168.666626,1102.075317 1139.975342,1098.689819 
	C1121.923462,1096.559692 1103.796631,1093.696899 1086.241943,1089.104248 
	C1068.239624,1084.394287 1050.662964,1077.748535 1034.571655,1067.906738 
	C1019.307556,1058.570923 1005.723206,1047.376465 994.774475,1032.995605 
	C997.935974,1026.583374 1004.173096,1025.423584 1009.666504,1023.848633 
	C1017.586426,1021.578003 1025.834595,1020.480591 1033.878906,1018.608032 
	C1042.215332,1016.667419 1046.816528,1010.435181 1048.740967,1002.837524 
	C1050.510376,995.851929 1049.071289,989.537354 1042.294556,984.507202 
	C1036.328003,980.078552 1031.371338,974.117004 1026.553711,968.344299 
	C1010.491455,949.097595 993.884460,930.229248 978.990234,910.102844 
	C959.009033,883.102539 939.460205,855.722107 922.366333,826.716248 
	C914.887451,814.025635 907.040527,801.532043 902.314514,787.446167 
	C900.951599,783.384155 900.332703,778.958069 898.357727,775.237610 
	C892.667480,764.518372 886.117004,754.251221 880.540955,743.477112 
	C873.518860,729.908936 868.457825,715.380981 866.317444,700.355347 
	C863.285828,679.073547 867.091064,657.924866 870.704163,636.932312 
	C871.827637,630.404907 873.308167,623.925659 874.944519,617.505798 
	C875.707275,614.513245 877.231812,611.714966 878.746826,608.006836 
	C882.800049,611.007874 885.874207,612.917358 888.517944,615.303650 
	C901.210571,626.760193 913.652527,638.497498 926.455872,649.827209 
	C933.843689,656.364685 941.480164,662.698242 949.530823,668.377808 
	C953.713562,671.328613 959.039429,672.659058 963.488831,674.567078 
	C964.074646,680.126282 964.579590,684.919006 965.058777,689.466614 
	C954.517273,693.761658 943.832397,681.582397 933.869263,691.517334 
	C935.781372,695.464478 937.143982,699.641174 939.574219,703.058655 
	C950.257080,718.081360 961.117188,732.983398 972.187927,747.722595 
	C977.126953,754.298279 982.557434,760.530823 988.117310,766.595947 
	C989.520630,768.126648 993.361511,769.748291 994.226929,769.045044 
	C998.034729,765.950806 999.645447,769.017517 1001.651245,770.954590 
	C1008.077454,777.160278 1014.060913,783.875854 1020.857727,789.636658 
	C1040.175049,806.009766 1059.781128,822.043091 1079.333130,838.138000 
	C1089.713379,846.682983 1100.217041,855.078186 1110.815552,863.662903 
	C1135.859131,855.613464 1153.811890,837.652405 1172.198242,820.505920 
	C1196.890381,832.711792 1220.476074,845.619019 1240.207031,864.588562 
	C1244.474243,868.691162 1249.243164,872.477295 1254.340820,875.448608 
	C1258.770386,878.030396 1263.889404,880.436646 1268.880981,880.867188 
	C1287.493896,882.472778 1295.735474,871.190979 1298.785400,855.571533 
	C1301.912842,839.555664 1300.387573,823.059875 1298.026733,806.847900 
	C1297.505249,803.266479 1296.164673,799.769165 1295.935669,796.186157 
	C1294.743896,777.536987 1299.207275,760.028320 1306.867065,743.143127 
	C1310.926147,734.195251 1315.375244,725.278809 1318.028564,715.890381 
	C1319.758423,709.769592 1320.117310,702.391418 1318.408569,696.332825 
	C1313.434204,678.695129 1301.890381,665.701965 1285.273315,658.092529 
	C1275.839355,653.772583 1265.573120,651.994019 1255.271118,656.422363 
	C1247.198975,659.892212 1244.534546,665.849854 1247.192505,674.015686 
	C1248.401978,677.731323 1249.178711,681.637268 1249.702759,685.517578 
	C1251.618774,699.705383 1248.706909,713.195374 1243.424805,726.305359 
	C1239.901978,735.048706 1237.621948,744.462463 1229.552368,751.812012 
	C1221.642334,747.455139 1213.762207,743.114685 1205.985840,738.831360 
	C1206.873901,733.167236 1206.902466,728.686829 1208.321167,724.701233 
	C1213.723999,709.522766 1212.492676,693.798645 1212.484741,678.227844 
	C1212.478394,665.670715 1205.243652,658.799927 1191.290161,657.242432 
	C1189.711060,665.666992 1188.532837,674.252991 1186.427612,682.605286 
	C1183.775635,693.126099 1183.538452,704.517883 1176.199463,714.857361 
	C1174.575317,711.274780 1173.460571,708.815918 1172.757446,707.264954 
	C1166.176880,718.004211 1159.695557,728.928528 1152.811279,739.592651 
	C1150.893066,742.564148 1147.685791,746.202698 1143.909546,744.409241 
	C1141.159790,743.103271 1139.468018,739.250916 1137.727173,736.285583 
	C1136.957031,734.973511 1137.117676,733.052063 1137.053223,731.399536 
	C1136.806519,725.075439 1137.007446,718.710205 1136.356445,712.431274 
	C1135.403442,703.242432 1133.694702,694.133972 1132.638062,684.953247 
	C1132.085815,680.155396 1129.593384,678.222595 1125.093750,677.180603 
	C1120.646851,676.150696 1116.023193,674.738403 1112.206055,672.335632 
	C1096.871338,662.682922 1081.551025,652.963135 1066.731201,642.548157 
	C1048.438354,629.692261 1030.644897,616.125488 1012.643982,602.854553 
	C1007.633911,599.160889 1002.333313,596.910645 995.517639,599.361389 
	C995.164490,604.425293 994.802124,609.622192 994.332703,616.353577 
	C990.793945,614.893311 988.009827,614.158508 985.670715,612.706726 
	C976.150208,606.797668 966.744080,600.702942 957.336243,594.614075 
	C936.272583,580.981445 916.587219,565.563904 898.752747,547.926697 
	C889.326233,538.604431 879.980591,528.861755 881.714783,513.773682 
	C881.773804,513.260254 881.124451,512.665405 880.812683,512.121521 
	C867.207031,508.892700 861.254700,511.734222 843.911987,517.439026 
	C828.427856,522.532471 813.533264,529.656860 798.830383,536.813232 
	C786.302612,542.910889 775.466064,551.841614 767.017151,562.909363 
	C761.946045,569.552429 757.799500,576.982178 757.104675,586.081116 
	C755.634460,605.332214 761.812439,623.544434 763.753357,642.311707 
	C764.572021,650.227783 765.970947,658.097656 767.411316,665.932434 
	C769.624695,677.971313 772.217407,689.940491 774.431458,701.979370 
	C776.409241,712.733582 777.897949,723.579346 779.960022,734.316040 
	C782.026062,745.073242 784.633911,755.725098 786.830200,766.458801 
	C792.815735,795.711731 798.693542,824.986633 804.651794,854.245178 
	C805.972351,860.729797 807.282166,867.224548 808.892761,873.640320 
	C811.058899,882.268677 813.627686,890.795654 815.816467,899.418762 
	C819.474854,913.832214 822.879395,928.310242 826.558472,942.718323 
	C830.079407,956.507263 833.782654,970.250000 837.464355,983.997375 
	C840.462036,995.191101 843.281067,1006.442444 846.655334,1017.523254 
	C851.464111,1033.314819 856.851440,1048.929565 861.716675,1064.704712 
	C865.022705,1075.424194 867.380188,1086.452026 871.000793,1097.055420 
	C879.004822,1120.495972 887.291931,1143.847656 895.939758,1167.058105 
	C902.016724,1183.368408 909.548340,1199.163818 915.025330,1215.655884 
	C916.931213,1221.394775 922.610535,1227.036865 918.978027,1234.727417 
	C916.348816,1234.933716 913.742859,1235.475342 911.195557,1235.274048 
	C903.939026,1234.700684 896.697693,1233.118408 889.466125,1233.207886 
	C871.885132,1233.425293 854.354980,1233.341064 836.709229,1234.832397 
	C811.562012,1236.957642 786.513245,1238.521362 761.650940,1243.504150 
	C741.111206,1247.620605 721.178101,1253.182251 701.875305,1261.164307 
	C680.995056,1269.798584 662.306274,1281.610352 646.674805,1298.203247 
	C626.351746,1319.776367 620.612976,1345.566772 625.599121,1373.723877 
	C628.624329,1390.807495 637.282593,1405.871826 648.668884,1419.137939 
	C654.724976,1426.193970 660.009033,1433.752808 661.638062,1443.110352 
	C664.869751,1461.674561 673.946899,1477.888794 683.745728,1493.258911 
	C701.301025,1520.795532 724.828979,1543.007080 751.091431,1562.366089 
	C771.974854,1577.760010 794.153503,1591.030762 817.166809,1602.874634 
	C831.776062,1610.393311 846.964661,1616.781250 861.635925,1624.186646 
	C866.495178,1626.639526 870.735596,1630.468262 874.930542,1634.052246 
	C881.159058,1639.373535 886.515137,1645.912109 893.265991,1650.389038 
	C912.894165,1663.406006 933.968750,1673.229492 957.165527,1678.666016 
	C976.046326,1683.090942 994.863647,1686.578979 1014.314209,1685.528931 
	C1021.615601,1685.134888 1028.733765,1684.074707 1035.485718,1678.919189 
	C1032.366089,1674.187866 1029.542114,1669.774292 1026.583496,1665.453125 
	C1023.248901,1660.582642 1023.827271,1657.612915 1029.206909,1657.203979 
	C1042.427246,1656.199219 1048.570679,1646.317017 1056.717407,1637.539185 
	C1049.226562,1635.267700 1042.638184,1633.416626 1036.149536,1631.264648 
	C1028.310059,1628.664795 1020.158569,1626.599487 1012.836182,1622.921143 
	C988.178589,1610.534790 963.301392,1598.795410 936.311157,1592.378174 
	C924.559509,1589.584106 912.798218,1589.084595 900.916321,1592.796509 
	C893.567017,1595.092651 885.940796,1597.943115 878.033142,1593.753662 
	C874.575012,1591.921387 870.479614,1591.295288 867.012939,1589.475342 
	C846.112549,1578.502441 824.931519,1567.991089 804.563416,1556.094238 
	C773.132935,1537.735474 744.400269,1515.866455 721.981079,1486.660889 
	C720.980774,1485.357788 720.538086,1483.626709 719.211304,1480.733521 
	C722.604065,1481.521362 724.706787,1481.502930 726.222778,1482.436646 
	C754.910034,1500.106567 786.114441,1512.236084 817.395020,1524.245605 
	C824.077698,1526.811401 831.851746,1528.779419 836.683228,1533.512939 
	C853.017212,1549.515747 873.102173,1558.094849 894.120728,1564.951294 
	C909.866760,1570.087646 926.055664,1573.264893 942.663879,1575.101685 
	C959.824829,1576.999756 976.526978,1574.997437 993.313171,1572.832031 
	C996.944336,1572.363647 1000.278992,1569.596191 1004.680603,1567.429688 
	C999.404907,1560.891846 994.934021,1555.351196 988.942932,1547.926758 
	C1003.759277,1545.132202 1011.408020,1535.031616 1019.561890,1524.606445 
	C1014.355286,1522.988403 1009.354248,1521.386719 1004.324829,1519.880005 
	C986.942078,1514.672852 969.515015,1509.610474 952.173645,1504.269165 
	C942.132690,1501.176392 932.378357,1497.034424 922.211914,1494.500366 
	C911.983459,1491.951294 901.366638,1491.004028 890.988037,1489.002197 
	C878.170593,1486.530151 866.125061,1489.336792 854.131531,1493.437134 
	C850.453796,1494.694458 846.295532,1496.567139 842.790710,1495.895752 
	C835.093811,1494.421509 827.414612,1492.115356 820.187744,1489.061401 
	C795.964294,1478.824951 771.690613,1468.671387 748.603943,1455.939453 
	C732.502502,1447.060059 717.562134,1436.550537 702.811401,1425.603027 
	C693.423462,1418.635498 691.871399,1410.408569 695.216431,1400.375854 
	C696.965210,1395.130493 699.354248,1390.069946 701.777649,1385.083252 
	C710.841125,1366.432983 725.472229,1352.354858 741.993774,1340.885498 
	C769.938293,1321.486328 801.681763,1309.849243 834.710571,1302.839111 
	C856.076416,1298.304443 878.066406,1296.232544 899.891174,1294.496582 
	C916.054810,1293.211060 932.402893,1294.243652 948.367065,1294.243652 
	C955.023376,1308.938599 960.947510,1323.137817 967.796936,1336.875488 
	C978.077576,1357.494995 989.000977,1377.794312 999.662415,1398.223755 
	C1017.877991,1433.128906 1037.770996,1467.127197 1059.316284,1500.003784 
	C1081.758423,1534.249023 1105.692383,1567.571777 1130.156006,1600.417480 
	C1146.036255,1621.738892 1163.793213,1641.690430 1181.162109,1661.865845 
	C1193.798584,1676.544434 1206.691772,1691.065918 1220.333252,1704.800659 
	C1241.848755,1726.463257 1263.770386,1747.748779 1286.133789,1768.533813 
	C1301.032715,1782.380981 1316.761108,1795.372559 1332.551758,1808.213867 
	C1349.668457,1822.133789 1366.982300,1835.852539 1384.767212,1848.899902 
	C1406.829224,1865.084717 1428.939087,1881.206543 1452.786743,1894.853882 
	C1476.387451,1908.359863 1499.241211,1923.166626 1522.746216,1936.846680 
	C1535.490845,1944.263916 1549.078491,1950.217773 1561.990234,1957.365967 
	C1590.249634,1973.010742 1619.704346,1986.076294 1649.418091,1998.602417 
	C1663.060303,2004.353516 1676.828003,2009.806396 1690.532471,2015.410522 
	C1694.649658,2017.094116 1696.947754,2019.754150 1696.246460,2024.636475 
	C1695.157837,2032.214844 1694.637573,2039.876221 1693.509644,2047.447754 
	C1690.080322,2070.470703 1686.119751,2093.419922 1683.043335,2116.488037 
	C1680.236084,2137.537109 1677.922607,2158.670166 1676.080688,2179.826172 
	C1672.225830,2224.101074 1674.074707,2268.300781 1679.152344,2312.383301 
	C1680.407227,2323.277588 1682.273315,2334.110352 1684.130371,2344.924561 
	C1686.432007,2358.326904 1688.787109,2371.728760 1691.556396,2385.039551 
	C1693.555786,2394.650391 1694.305420,2404.615479 1700.380981,2413.119385 
	C1710.482910,2427.258301 1720.549683,2441.455566 1729.867798,2456.113770 
	C1744.679810,2479.414307 1759.390015,2502.854004 1768.419312,2529.212646 
	C1772.041870,2539.788086 1775.159058,2550.536621 1778.621460,2562.871338 
M1575.530884,832.135681 
	C1587.786743,835.978516 1601.204956,836.068604 1612.391357,843.266541 
	C1615.264771,845.115479 1618.472534,847.438110 1619.920776,850.343567 
	C1627.979858,866.511719 1635.613892,882.893982 1643.262207,899.264160 
	C1655.069946,924.537109 1666.744995,949.872131 1678.529175,975.156189 
	C1684.616211,988.216492 1690.816895,1001.223816 1697.069092,1014.473206 
	C1739.500977,1014.722473 1780.910400,1011.155151 1822.259766,1001.054504 
	C1820.386353,997.814209 1819.227783,995.057678 1817.428101,992.816101 
	C1802.780884,974.574097 1788.119385,956.341675 1773.253418,938.278015 
	C1758.412109,920.244385 1743.185791,902.527222 1728.391968,884.455383 
	C1712.540894,865.091980 1696.978760,845.491699 1681.325928,825.966492 
	C1669.802979,811.592834 1657.904053,797.492554 1646.981934,782.674133 
	C1638.233643,770.804993 1632.858765,757.191895 1632.187744,742.221313 
	C1631.564331,728.312256 1631.509766,714.385376 1635.171143,701.048584 
	C1630.384155,696.967224 1625.717285,698.254456 1621.415527,699.848145 
	C1611.409180,703.554993 1604.152954,710.542297 1599.941406,720.303345 
	C1598.503662,723.635620 1597.317383,726.211304 1591.995117,725.783325 
	C1588.714722,701.473206 1594.048584,676.901123 1590.364380,652.947083 
	C1585.468628,650.563538 1581.604736,652.108521 1579.575195,655.815552 
	C1575.968506,662.403381 1572.159180,669.205017 1570.389771,676.398193 
	C1567.713623,687.278137 1566.834717,698.590698 1564.974487,709.682983 
	C1561.310791,731.531555 1561.244263,753.319702 1565.072021,775.176453 
	C1566.125977,781.194946 1566.003052,787.419495 1566.451416,794.010559 
	C1554.906616,794.010559 1544.620483,793.802612 1534.346680,794.069458 
	C1524.209106,794.332764 1515.877686,798.449280 1510.167725,807.092285 
	C1506.328979,812.902954 1506.684326,818.894470 1509.912354,824.826721 
	C1513.175415,830.823059 1518.519775,835.265564 1525.060181,833.841492 
	C1541.283936,830.308777 1557.535767,832.146179 1575.530884,832.135681 
z"/>
<path fill="#FBFBFB" opacity="1.000000" stroke="none" 
	d="
M1778.563965,2562.038818 
	C1775.159058,2550.536621 1772.041870,2539.788086 1768.419312,2529.212646 
	C1759.390015,2502.854004 1744.679810,2479.414307 1729.867798,2456.113770 
	C1720.549683,2441.455566 1710.482910,2427.258301 1700.380981,2413.119385 
	C1694.305420,2404.615479 1693.555786,2394.650391 1691.556396,2385.039551 
	C1688.787109,2371.728760 1686.432007,2358.326904 1684.130371,2344.924561 
	C1682.273315,2334.110352 1680.407227,2323.277588 1679.152344,2312.383301 
	C1674.074707,2268.300781 1672.225830,2224.101074 1676.080688,2179.826172 
	C1677.922607,2158.670166 1680.236084,2137.537109 1683.043335,2116.488037 
	C1686.119751,2093.419922 1690.080322,2070.470703 1693.509644,2047.447754 
	C1694.637573,2039.876221 1695.157837,2032.214844 1696.246460,2024.636475 
	C1696.947754,2019.754150 1694.649658,2017.094116 1690.532471,2015.410522 
	C1676.828003,2009.806396 1663.060303,2004.353516 1649.418091,1998.602417 
	C1619.704346,1986.076294 1590.249634,1973.010742 1561.990234,1957.365967 
	C1549.078491,1950.217773 1535.490845,1944.263916 1522.746216,1936.846680 
	C1499.241211,1923.166626 1476.387451,1908.359863 1452.786743,1894.853882 
	C1428.939087,1881.206543 1406.829224,1865.084717 1384.767212,1848.899902 
	C1366.982300,1835.852539 1349.668457,1822.133789 1332.551758,1808.213867 
	C1316.761108,1795.372559 1301.032715,1782.380981 1286.133789,1768.533813 
	C1263.770386,1747.748779 1241.848755,1726.463257 1220.333252,1704.800659 
	C1206.691772,1691.065918 1193.798584,1676.544434 1181.162109,1661.865845 
	C1163.793213,1641.690430 1146.036255,1621.738892 1130.156006,1600.417480 
	C1105.692383,1567.571777 1081.758423,1534.249023 1059.316284,1500.003784 
	C1037.770996,1467.127197 1017.877991,1433.128906 999.662415,1398.223755 
	C989.000977,1377.794312 978.077576,1357.494995 967.796936,1336.875488 
	C960.947510,1323.137817 955.023376,1308.938599 948.367065,1294.243652 
	C932.402893,1294.243652 916.054810,1293.211060 899.891174,1294.496582 
	C878.066406,1296.232544 856.076416,1298.304443 834.710571,1302.839111 
	C801.681763,1309.849243 769.938293,1321.486328 741.993774,1340.885498 
	C725.472229,1352.354858 710.841125,1366.432983 701.777649,1385.083252 
	C699.354248,1390.069946 696.965210,1395.130493 695.216431,1400.375854 
	C691.871399,1410.408569 693.423462,1418.635498 702.811401,1425.603027 
	C717.562134,1436.550537 732.502502,1447.060059 748.603943,1455.939453 
	C771.690613,1468.671387 795.964294,1478.824951 820.187744,1489.061401 
	C827.414612,1492.115356 835.093811,1494.421509 842.790710,1495.895752 
	C846.295532,1496.567139 850.453796,1494.694458 854.131531,1493.437134 
	C866.125061,1489.336792 878.170593,1486.530151 890.988037,1489.002197 
	C901.366638,1491.004028 911.983459,1491.951294 922.211914,1494.500366 
	C932.378357,1497.034424 942.132690,1501.176392 952.173645,1504.269165 
	C969.515015,1509.610474 986.942078,1514.672852 1004.324829,1519.880005 
	C1009.354248,1521.386719 1014.355286,1522.988403 1019.561890,1524.606445 
	C1011.408020,1535.031616 1003.759277,1545.132202 988.942932,1547.926758 
	C994.934021,1555.351196 999.404907,1560.891846 1004.680603,1567.429688 
	C1000.278992,1569.596191 996.944336,1572.363647 993.313171,1572.832031 
	C976.526978,1574.997437 959.824829,1576.999756 942.663879,1575.101685 
	C926.055664,1573.264893 909.866760,1570.087646 894.120728,1564.951294 
	C873.102173,1558.094849 853.017212,1549.515747 836.683228,1533.512939 
	C831.851746,1528.779419 824.077698,1526.811401 817.395020,1524.245605 
	C786.114441,1512.236084 754.910034,1500.106567 726.222778,1482.436646 
	C724.706787,1481.502930 722.604065,1481.521362 719.211304,1480.733521 
	C720.538086,1483.626709 720.980774,1485.357788 721.981079,1486.660889 
	C744.400269,1515.866455 773.132935,1537.735474 804.563416,1556.094238 
	C824.931519,1567.991089 846.112549,1578.502441 867.012939,1589.475342 
	C870.479614,1591.295288 874.575012,1591.921387 878.033142,1593.753662 
	C885.940796,1597.943115 893.567017,1595.092651 900.916321,1592.796509 
	C912.798218,1589.084595 924.559509,1589.584106 936.311157,1592.378174 
	C963.301392,1598.795410 988.178589,1610.534790 1012.836182,1622.921143 
	C1020.158569,1626.599487 1028.310059,1628.664795 1036.149536,1631.264648 
	C1042.638184,1633.416626 1049.226562,1635.267700 1056.717407,1637.539185 
	C1048.570679,1646.317017 1042.427246,1656.199219 1029.206909,1657.203979 
	C1023.827271,1657.612915 1023.248901,1660.582642 1026.583496,1665.453125 
	C1029.542114,1669.774292 1032.366089,1674.187866 1035.485718,1678.919189 
	C1028.733765,1684.074707 1021.615601,1685.134888 1014.314209,1685.528931 
	C994.863647,1686.578979 976.046326,1683.090942 957.165527,1678.666016 
	C933.968750,1673.229492 912.894165,1663.406006 893.265991,1650.389038 
	C886.515137,1645.912109 881.159058,1639.373535 874.930542,1634.052246 
	C870.735596,1630.468262 866.495178,1626.639526 861.635925,1624.186646 
	C846.964661,1616.781250 831.776062,1610.393311 817.166809,1602.874634 
	C794.153503,1591.030762 771.974854,1577.760010 751.091431,1562.366089 
	C724.828979,1543.007080 701.301025,1520.795532 683.745728,1493.258911 
	C673.946899,1477.888794 664.869751,1461.674561 661.638062,1443.110352 
	C660.009033,1433.752808 654.724976,1426.193970 648.668884,1419.137939 
	C637.282593,1405.871826 628.624329,1390.807495 625.599121,1373.723877 
	C620.612976,1345.566772 626.351746,1319.776367 646.674805,1298.203247 
	C662.306274,1281.610352 680.995056,1269.798584 701.875305,1261.164307 
	C721.178101,1253.182251 741.111206,1247.620605 761.650940,1243.504150 
	C786.513245,1238.521362 811.562012,1236.957642 836.709229,1234.832397 
	C854.354980,1233.341064 871.885132,1233.425293 889.466125,1233.207886 
	C896.697693,1233.118408 903.939026,1234.700684 911.195557,1235.274048 
	C913.742859,1235.475342 916.348816,1234.933716 918.978027,1234.727417 
	C922.610535,1227.036865 916.931213,1221.394775 915.025330,1215.655884 
	C909.548340,1199.163818 902.016724,1183.368408 895.939758,1167.058105 
	C887.291931,1143.847656 879.004822,1120.495972 871.000793,1097.055420 
	C867.380188,1086.452026 865.022705,1075.424194 861.716675,1064.704712 
	C856.851440,1048.929565 851.464111,1033.314819 846.655334,1017.523254 
	C843.281067,1006.442444 840.462036,995.191101 837.464355,983.997375 
	C833.782654,970.250000 830.079407,956.507263 826.558472,942.718323 
	C822.879395,928.310242 819.474854,913.832214 815.816467,899.418762 
	C813.627686,890.795654 811.058899,882.268677 808.892761,873.640320 
	C807.282166,867.224548 805.972351,860.729797 804.651794,854.245178 
	C798.693542,824.986633 792.815735,795.711731 786.830200,766.458801 
	C784.633911,755.725098 782.026062,745.073242 779.960022,734.316040 
	C777.897949,723.579346 776.409241,712.733582 774.431458,701.979370 
	C772.217407,689.940491 769.624695,677.971313 767.411316,665.932434 
	C765.970947,658.097656 764.572021,650.227783 763.753357,642.311707 
	C761.812439,623.544434 755.634460,605.332214 757.104675,586.081116 
	C757.799500,576.982178 761.946045,569.552429 767.017151,562.909363 
	C775.466064,551.841614 786.302612,542.910889 798.830383,536.813232 
	C813.533264,529.656860 828.427856,522.532471 843.911987,517.439026 
	C861.254700,511.734222 867.207031,508.892700 880.812683,512.121521 
	C881.124451,512.665405 881.773804,513.260254 881.714783,513.773682 
	C879.980591,528.861755 889.326233,538.604431 898.752747,547.926697 
	C916.587219,565.563904 936.272583,580.981445 957.336243,594.614075 
	C966.744080,600.702942 976.150208,606.797668 985.670715,612.706726 
	C988.009827,614.158508 990.793945,614.893311 994.332703,616.353577 
	C994.802124,609.622192 995.164490,604.425293 995.517639,599.361389 
	C1002.333313,596.910645 1007.633911,599.160889 1012.643982,602.854553 
	C1030.644897,616.125488 1048.438354,629.692261 1066.731201,642.548157 
	C1081.551025,652.963135 1096.871338,662.682922 1112.206055,672.335632 
	C1116.023193,674.738403 1120.646851,676.150696 1125.093750,677.180603 
	C1129.593384,678.222595 1132.085815,680.155396 1132.638062,684.953247 
	C1133.694702,694.133972 1135.403442,703.242432 1136.356445,712.431274 
	C1137.007446,718.710205 1136.806519,725.075439 1137.053223,731.399536 
	C1137.117676,733.052063 1136.957031,734.973511 1137.727173,736.285583 
	C1139.468018,739.250916 1141.159790,743.103271 1143.909546,744.409241 
	C1147.685791,746.202698 1150.893066,742.564148 1152.811279,739.592651 
	C1159.695557,728.928528 1166.176880,718.004211 1172.757446,707.264954 
	C1173.460571,708.815918 1174.575317,711.274780 1176.199463,714.857361 
	C1183.538452,704.517883 1183.775635,693.126099 1186.427612,682.605286 
	C1188.532837,674.252991 1189.711060,665.666992 1191.290161,657.242432 
	C1205.243652,658.799927 1212.478394,665.670715 1212.484741,678.227844 
	C1212.492676,693.798645 1213.723999,709.522766 1208.321167,724.701233 
	C1206.902466,728.686829 1206.873901,733.167236 1205.985840,738.831360 
	C1213.762207,743.114685 1221.642334,747.455139 1229.552368,751.812012 
	C1237.621948,744.462463 1239.901978,735.048706 1243.424805,726.305359 
	C1248.706909,713.195374 1251.618774,699.705383 1249.702759,685.517578 
	C1249.178711,681.637268 1248.401978,677.731323 1247.192505,674.015686 
	C1244.534546,665.849854 1247.198975,659.892212 1255.271118,656.422363 
	C1265.573120,651.994019 1275.839355,653.772583 1285.273315,658.092529 
	C1301.890381,665.701965 1313.434204,678.695129 1318.408569,696.332825 
	C1320.117310,702.391418 1319.758423,709.769592 1318.028564,715.890381 
	C1315.375244,725.278809 1310.926147,734.195251 1306.867065,743.143127 
	C1299.207275,760.028320 1294.743896,777.536987 1295.935669,796.186157 
	C1296.164673,799.769165 1297.505249,803.266479 1298.026733,806.847900 
	C1300.387573,823.059875 1301.912842,839.555664 1298.785400,855.571533 
	C1295.735474,871.190979 1287.493896,882.472778 1268.880981,880.867188 
	C1263.889404,880.436646 1258.770386,878.030396 1254.340820,875.448608 
	C1249.243164,872.477295 1244.474243,868.691162 1240.207031,864.588562 
	C1220.476074,845.619019 1196.890381,832.711792 1172.198242,820.505920 
	C1153.811890,837.652405 1135.859131,855.613464 1110.815552,863.662903 
	C1100.217041,855.078186 1089.713379,846.682983 1079.333130,838.138000 
	C1059.781128,822.043091 1040.175049,806.009766 1020.857727,789.636658 
	C1014.060913,783.875854 1008.077454,777.160278 1001.651245,770.954590 
	C999.645447,769.017517 998.034729,765.950806 994.226929,769.045044 
	C993.361511,769.748291 989.520630,768.126648 988.117310,766.595947 
	C982.557434,760.530823 977.126953,754.298279 972.187927,747.722595 
	C961.117188,732.983398 950.257080,718.081360 939.574219,703.058655 
	C937.143982,699.641174 935.781372,695.464478 933.869263,691.517334 
	C943.832397,681.582397 954.517273,693.761658 965.058777,689.466614 
	C964.579590,684.919006 964.074646,680.126282 963.488831,674.567078 
	C959.039429,672.659058 953.713562,671.328613 949.530823,668.377808 
	C941.480164,662.698242 933.843689,656.364685 926.455872,649.827209 
	C913.652527,638.497498 901.210571,626.760193 888.517944,615.303650 
	C885.874207,612.917358 882.800049,611.007874 878.746826,608.006836 
	C877.231812,611.714966 875.707275,614.513245 874.944519,617.505798 
	C873.308167,623.925659 871.827637,630.404907 870.704163,636.932312 
	C867.091064,657.924866 863.285828,679.073547 866.317444,700.355347 
	C868.457825,715.380981 873.518860,729.908936 880.540955,743.477112 
	C886.117004,754.251221 892.667480,764.518372 898.357727,775.237610 
	C900.332703,778.958069 900.951599,783.384155 902.314514,787.446167 
	C907.040527,801.532043 914.887451,814.025635 922.366333,826.716248 
	C939.460205,855.722107 959.009033,883.102539 978.990234,910.102844 
	C993.884460,930.229248 1010.491455,949.097595 1026.553711,968.344299 
	C1031.371338,974.117004 1036.328003,980.078552 1042.294556,984.507202 
	C1049.071289,989.537354 1050.510376,995.851929 1048.740967,1002.837524 
	C1046.816528,1010.435181 1042.215332,1016.667419 1033.878906,1018.608032 
	C1025.834595,1020.480591 1017.586426,1021.578003 1009.666504,1023.848633 
	C1004.173096,1025.423584 997.935974,1026.583374 994.774475,1032.995605 
	C1005.723206,1047.376465 1019.307556,1058.570923 1034.571655,1067.906738 
	C1050.662964,1077.748535 1068.239624,1084.394287 1086.241943,1089.104248 
	C1103.796631,1093.696899 1121.923462,1096.559692 1139.975342,1098.689819 
	C1168.666626,1102.075317 1197.523315,1104.037109 1226.266602,1107.020874 
	C1233.419800,1107.763550 1240.406250,1110.113770 1249.934082,1112.287598 
	C1243.145386,1117.042236 1238.578247,1120.750610 1233.553223,1123.671753 
	C1212.271362,1136.043335 1190.780029,1148.055664 1169.542236,1160.501465 
	C1164.857056,1163.247070 1160.893677,1167.224487 1156.221313,1170.933594 
	C1160.433105,1175.249390 1164.357178,1173.521240 1167.990967,1172.642334 
	C1176.986938,1170.466187 1185.931396,1168.075684 1194.884033,1165.723389 
	C1210.560425,1161.604370 1226.226807,1157.447510 1241.898315,1153.310181 
	C1264.227905,1147.415039 1286.491211,1141.251343 1308.910645,1135.719971 
	C1325.272827,1131.682983 1341.709473,1127.587524 1358.351318,1125.136597 
	C1378.374878,1122.187378 1398.628662,1120.668091 1418.825439,1119.068359 
	C1434.067627,1117.861084 1449.381592,1117.582031 1464.654907,1116.734741 
	C1475.333496,1116.142456 1476.890503,1117.461182 1476.990112,1128.078979 
	C1477.030762,1132.410156 1476.874512,1136.755737 1477.177612,1141.068726 
	C1477.502686,1145.694092 1480.019653,1148.418335 1484.934204,1148.320190 
	C1499.191895,1148.035767 1513.409180,1148.959717 1527.644775,1145.890869 
	C1540.590088,1143.099731 1553.982300,1142.450195 1567.107544,1140.407471 
	C1581.813354,1138.119141 1596.443237,1135.341553 1611.100952,1132.746216 
	C1618.930542,1131.359985 1626.765259,1129.994019 1634.568970,1128.472168 
	C1654.784546,1124.529663 1674.974609,1120.455933 1695.194458,1116.535156 
	C1705.306152,1114.574341 1715.494385,1112.999878 1725.585693,1110.944580 
	C1734.684204,1109.091309 1743.674805,1106.713135 1752.755005,1104.762329 
	C1763.127075,1102.534058 1773.557251,1100.576050 1783.940674,1098.398682 
	C1791.703979,1096.770630 1799.414062,1094.886597 1807.182373,1093.284790 
	C1819.854248,1090.672241 1832.570923,1088.275635 1845.238525,1085.642944 
	C1861.748657,1082.211670 1878.174927,1078.348999 1894.744019,1075.240479 
	C1904.069702,1073.490845 1912.986694,1072.924683 1922.734497,1077.115112 
	C1937.890381,1083.630493 1953.939331,1081.917603 1969.070557,1074.900635 
	C1983.414917,1068.248535 1997.608521,1061.264404 2012.044189,1054.820068 
	C2017.454224,1052.404907 2023.249146,1050.419678 2029.069336,1049.474731 
	C2035.222900,1048.475708 2040.584595,1051.370483 2045.118652,1055.729736 
	C2053.478516,1063.767212 2062.047363,1071.672974 2073.171387,1075.712891 
	C2080.278564,1078.293945 2087.582764,1080.552612 2094.981689,1082.051636 
	C2103.075684,1083.691284 2111.483643,1085.655029 2119.571777,1085.046875 
	C2134.720459,1083.907837 2149.752930,1081.119141 2164.804932,1078.827393 
	C2184.242676,1075.868042 2202.426270,1068.710571 2220.493408,1061.405884 
	C2240.821289,1053.187012 2260.989990,1044.559326 2279.881836,1033.260132 
	C2299.087891,1021.772705 2318.372070,1010.416260 2337.570312,998.915588 
	C2342.191162,996.147400 2346.605225,993.034668 2352.144775,989.405212 
	C2350.336182,1008.624634 2348.706299,1026.021606 2347.058594,1043.416748 
	C2346.401611,1050.354614 2345.323486,1057.276855 2345.105957,1064.227051 
	C2344.666016,1078.308838 2341.915283,1091.873413 2338.191162,1105.439087 
	C2333.195557,1123.635864 2329.152832,1142.097900 2324.910645,1160.494263 
	C2324.288818,1163.190430 2324.824219,1166.153320 2324.824219,1168.653809 
	C2331.617432,1171.339478 2333.676514,1166.222168 2335.996094,1163.265137 
	C2342.105225,1155.476440 2347.878174,1147.366943 2353.136963,1138.978760 
	C2375.474854,1103.348267 2397.166992,1067.306274 2419.894531,1031.928101 
	C2438.934082,1002.290100 2459.399902,973.589905 2482.964600,947.285767 
	C2486.495361,943.344482 2489.806641,938.653625 2497.057373,936.496460 
	C2493.746582,957.812622 2489.488770,977.824646 2487.817139,998.050415 
	C2486.121338,1018.573181 2485.831543,1039.374390 2487.041016,1059.929199 
	C2488.247559,1080.434082 2491.074219,1100.982178 2495.043213,1121.146729 
	C2498.937012,1140.929443 2503.118652,1160.932617 2514.498779,1178.796143 
	C2516.191895,1171.589233 2518.322510,1164.451904 2519.482422,1157.160156 
	C2521.563721,1144.077026 2523.038086,1130.897949 2524.809570,1117.764771 
	C2526.987793,1101.615723 2529.208496,1085.472534 2531.416504,1069.327515 
	C2531.597168,1068.006836 2531.854248,1066.696167 2532.018311,1065.373779 
	C2535.212402,1039.651733 2537.859131,1013.846436 2541.763184,988.232727 
	C2544.659424,969.231812 2548.963379,950.430908 2553.066650,931.633850 
	C2555.657471,919.764343 2558.796631,907.998108 2562.154785,896.319214 
	C2563.867432,890.362793 2567.051514,884.829346 2568.762695,878.872681 
	C2570.785156,871.831970 2575.754150,870.116516 2582.115723,869.093323 
	C2590.291992,867.778320 2598.326172,865.591858 2606.442139,863.878235 
	C2609.022461,863.333313 2611.659668,863.013672 2614.286377,862.738831 
	C2621.964111,861.935669 2627.624023,864.950439 2631.860596,871.456421 
	C2639.214844,882.750732 2646.877441,893.844299 2654.418701,905.016663 
	C2664.508545,919.964905 2674.616943,934.900635 2684.681396,949.865845 
	C2685.566895,951.182312 2686.188232,952.676514 2685.753174,955.598267 
	C2680.602051,952.268677 2675.385254,949.036072 2670.312500,945.591125 
	C2655.879883,935.789307 2641.537109,925.855225 2627.062744,916.115967 
	C2625.586670,915.122803 2623.461670,915.094910 2620.368896,914.288208 
	C2617.413330,938.670898 2614.563232,962.181641 2611.745117,985.426880 
	C2613.699463,986.406433 2614.603271,987.277832 2615.435791,987.214600 
	C2629.949463,986.110901 2644.455078,984.903625 2658.959717,983.683960 
	C2660.606689,983.545410 2662.229004,983.137085 2663.874023,982.953369 
	C2680.062256,981.145142 2696.307373,979.739441 2712.425049,977.440063 
	C2724.532471,975.712891 2736.478760,972.852966 2748.493896,970.483032 
	C2755.657715,969.069885 2762.854004,967.795715 2769.968506,966.164795 
	C2782.872803,963.206726 2795.710938,959.959290 2808.617432,957.011475 
	C2810.755615,956.523071 2813.101074,956.942810 2816.622559,956.942810 
	C2815.250000,959.440308 2814.583984,961.103088 2813.538818,962.477661 
	C2808.556396,969.031433 2803.539307,975.561035 2798.406250,981.997070 
	C2791.266846,990.948792 2781.036377,994.895630 2770.608887,997.872620 
	C2754.477783,1002.478088 2737.723633,1002.538879 2721.097900,1003.207825 
	C2705.490967,1003.835815 2689.883789,1004.461975 2674.272217,1004.955750 
	C2667.336426,1005.175171 2661.791016,1007.143860 2657.630615,1013.398376 
	C2652.330078,1021.367126 2646.263428,1028.740112 2643.542969,1038.224365 
	C2640.062988,1050.357300 2645.227051,1060.105103 2656.880371,1065.476196 
	C2670.631592,1071.814209 2683.465332,1069.216675 2696.223633,1063.383911 
	C2710.864502,1056.690552 2725.367188,1049.692871 2739.892822,1042.749268 
	C2752.072510,1036.927124 2764.496582,1031.449951 2777.727539,1028.906982 
	C2796.836914,1025.234131 2811.277832,1029.245117 2819.513428,1045.085938 
	C2822.836670,1051.478149 2825.271240,1058.335815 2828.047852,1065.007690 
	C2831.784180,1073.987183 2837.385010,1081.750977 2844.337402,1088.383301 
	C2853.011963,1096.658691 2864.392090,1096.653931 2875.264160,1091.070923 
	C2890.085449,1083.459717 2893.158691,1071.255127 2892.068359,1056.208984 
	C2890.122314,1029.357422 2887.902588,1002.488403 2887.292725,975.592834 
	C2886.994385,962.441711 2889.904297,949.193542 2891.685547,936.033081 
	C2892.291992,931.551758 2894.858887,928.778931 2899.780518,927.194946 
	C2913.566650,922.758301 2926.907715,916.912598 2940.746094,912.672363 
	C2956.199463,907.937378 2972.070312,905.635803 2986.427979,915.999268 
	C2992.032471,920.044495 2997.317383,924.935730 3001.570801,930.363770 
	C3009.864502,940.947815 3017.445312,952.101990 3025.041016,963.211975 
	C3026.617432,965.517700 3027.696533,968.637451 3027.774658,971.416626 
	C3028.262939,988.778870 3025.765381,1005.792236 3021.210693,1022.546387 
	C3017.844238,1034.930176 3015.036377,1047.471802 3011.435547,1059.783936 
	C3008.787354,1068.838867 3005.110840,1077.587646 3002.155518,1086.559448 
	C2997.099609,1101.907593 2992.047607,1117.263184 2987.427979,1132.745239 
	C2985.894287,1137.884521 2986.578369,1142.856812 2990.540771,1147.566406 
	C3002.914795,1162.274170 3010.768066,1179.267334 3016.626709,1197.647217 
	C3023.308350,1218.608887 3027.003174,1239.859375 3029.331543,1261.646240 
	C3031.851807,1285.226318 3032.716797,1308.756348 3030.867188,1332.328247 
	C3029.647949,1347.863403 3027.501465,1363.343872 3025.234131,1378.770142 
	C3024.260742,1385.394775 3024.660645,1389.952637 3030.180420,1395.416382 
	C3041.458008,1406.579590 3044.669189,1417.557373 3038.113281,1433.356201 
	C3034.077148,1443.083496 3024.964600,1444.562744 3016.732666,1447.556763 
	C3014.294189,1448.443604 3011.570801,1448.546509 3008.825928,1449.035645 
	C3004.079590,1467.016724 2993.109619,1479.865356 2976.738770,1487.461670 
	C2966.362305,1492.276489 2955.604492,1496.726562 2943.565918,1490.441284 
	C2936.719971,1486.867065 2933.903076,1489.142578 2932.438965,1496.493042 
	C2928.166992,1517.940918 2915.314941,1533.059937 2896.822998,1543.699219 
	C2883.193359,1551.541016 2868.715088,1552.464966 2853.620117,1548.192627 
	C2837.992676,1543.769287 2830.716553,1526.224609 2833.651367,1514.947510 
	C2838.666260,1495.678101 2844.261963,1476.545166 2848.684814,1457.142944 
	C2850.692871,1448.332886 2851.704590,1439.625977 2846.740967,1430.192627 
	C2838.732178,1414.971558 2839.004150,1397.705444 2842.817627,1381.309204 
	C2847.962402,1359.188354 2845.217041,1338.284424 2836.108887,1318.089966 
	C2828.829102,1301.949219 2821.123779,1285.928345 2812.451172,1270.504395 
	C2797.702148,1244.274170 2778.892578,1221.038330 2757.570312,1199.786621 
	C2744.756104,1187.014771 2731.330078,1175.005005 2717.491455,1163.342407 
	C2711.153076,1158.000854 2704.804199,1155.437500 2697.050049,1155.099609 
	C2671.816650,1154.000122 2646.580811,1152.952759 2621.343506,1151.947876 
	C2618.737305,1151.843872 2616.114258,1152.157104 2613.014648,1152.298950 
	C2613.014648,1161.522949 2612.687988,1170.348511 2613.111572,1179.137939 
	C2613.494141,1187.075317 2614.702881,1194.972412 2615.536377,1202.888428 
	C2617.065918,1217.419556 2618.263672,1231.997437 2620.307861,1246.455566 
	C2620.925781,1250.825806 2623.460205,1255.128784 2625.875977,1258.987183 
	C2628.628662,1263.383667 2634.159424,1263.118896 2637.269287,1258.232910 
	C2641.675049,1251.310669 2645.837646,1244.151245 2649.271484,1236.709106 
	C2657.929688,1217.945435 2666.040527,1198.930054 2674.579346,1180.110107 
	C2676.014160,1176.948364 2678.493408,1174.260498 2680.654541,1171.114258 
	C2677.024658,1202.205322 2677.645020,1233.006592 2676.860840,1263.761597 
	C2676.497314,1278.011230 2675.001465,1292.253784 2673.453369,1306.437744 
	C2673.015381,1310.451782 2670.583008,1314.248047 2669.161621,1317.896973 
	C2661.743652,1318.860474 2654.873535,1317.400757 2649.489746,1323.047241 
	C2647.913574,1324.700439 2643.815674,1324.322266 2640.887451,1324.255737 
	C2609.264893,1323.539062 2577.644531,1322.717285 2546.024658,1321.885376 
	C2521.431885,1321.238159 2496.843018,1320.415894 2472.248047,1319.894165 
	C2450.939941,1319.442139 2429.624756,1319.058228 2408.313232,1319.085571 
	C2379.667725,1319.122437 2350.954590,1318.414551 2322.390869,1320.086060 
	C2243.176270,1324.721558 2163.915039,1322.470093 2084.675049,1323.025024 
	C2070.373291,1323.125122 2056.055420,1322.459595 2041.761963,1321.786255 
	C2021.885010,1320.850220 2002.026245,1319.531372 1982.153564,1318.493164 
	C1979.590332,1318.359375 1976.990845,1318.921753 1973.002930,1319.292236 
	C1975.233765,1326.872314 1976.992310,1333.738159 1979.270142,1340.427124 
	C1987.481323,1364.540283 1990.011230,1388.832520 1983.200439,1413.811523 
	C1981.028931,1421.776123 1980.343994,1430.142456 1978.906494,1438.312256 
	C1977.526733,1446.154541 1975.908569,1453.957520 1974.658081,1461.819580 
	C1973.176270,1471.135864 1973.631592,1480.171631 1978.660034,1488.641602 
	C1980.967529,1492.528442 1982.497070,1496.877075 1984.525635,1501.337646 
	C1976.895752,1504.292725 1972.350342,1498.887207 1968.037476,1495.811646 
	C1951.140381,1483.761841 1942.974243,1466.639771 1940.899292,1446.101807 
	C1938.861694,1425.932861 1942.681641,1406.421631 1945.946411,1386.754395 
	C1948.964966,1368.570312 1943.986694,1352.719238 1930.660522,1339.660767 
	C1913.997681,1323.332886 1894.371704,1323.364990 1877.713501,1338.108765 
	C1869.950806,1344.979248 1864.012451,1353.880859 1856.990967,1361.629639 
	C1852.279053,1366.829590 1852.792969,1372.847900 1854.447510,1378.522827 
	C1857.118164,1387.683105 1860.556641,1396.641602 1864.057495,1405.533203 
	C1871.069214,1423.342041 1872.516113,1441.829224 1869.418213,1460.387695 
	C1867.819092,1469.968262 1863.141968,1478.931396 1855.153320,1485.689453 
	C1838.702881,1469.059937 1820.420288,1455.179199 1799.505005,1445.057129 
	C1794.828369,1442.793701 1789.496948,1441.273071 1784.330933,1440.746460 
	C1769.452637,1439.229736 1754.527588,1437.873291 1739.848022,1442.796875 
	C1725.528564,1447.599609 1710.618530,1450.932983 1696.791260,1456.839355 
	C1678.599487,1464.610107 1659.611816,1468.766602 1640.379150,1471.570190 
	C1628.697144,1473.273193 1616.426636,1473.112549 1604.681396,1471.668091 
	C1589.300171,1469.776489 1573.620728,1467.777954 1559.412842,1460.874756 
	C1550.331787,1456.462402 1541.098267,1451.867432 1533.114136,1445.800293 
	C1517.671753,1434.065552 1503.195557,1421.068970 1488.059082,1408.919067 
	C1479.626465,1402.150635 1470.794556,1395.856567 1461.924072,1389.661499 
	C1446.073242,1378.591064 1439.264282,1357.573486 1449.059570,1339.939453 
	C1453.222290,1332.445557 1457.836548,1325.653076 1463.710815,1319.979370 
	C1471.541626,1329.015869 1478.687500,1338.368286 1486.965820,1346.578979 
	C1502.960815,1362.443359 1521.465210,1374.747803 1542.941040,1382.095093 
	C1554.781372,1386.145752 1566.514282,1391.088135 1578.718018,1393.370972 
	C1600.230225,1397.395142 1622.040405,1400.348267 1644.070923,1398.675415 
	C1662.264282,1397.294067 1680.472656,1395.860596 1698.577393,1393.655151 
	C1708.403931,1392.458008 1718.020386,1389.562378 1727.748901,1387.515747 
	C1730.664307,1386.902344 1733.635010,1386.208862 1736.586060,1386.183228 
	C1741.926025,1386.136597 1744.873901,1383.655884 1744.883301,1378.435425 
	C1744.925049,1355.110840 1744.808350,1331.785645 1744.676270,1308.461182 
	C1744.671143,1307.564209 1743.922241,1306.671509 1743.070679,1304.777222 
	C1726.578003,1303.849731 1709.691162,1302.906250 1692.805176,1301.948608 
	C1676.542236,1301.026367 1660.283936,1300.015381 1644.016602,1299.179565 
	C1627.736084,1298.343018 1611.441284,1297.778198 1595.162598,1296.909180 
	C1568.943726,1295.509521 1542.729980,1294.007812 1516.519653,1292.453613 
	C1497.972290,1291.353638 1479.364624,1290.745483 1460.906982,1288.768311 
	C1426.708374,1285.104980 1392.450684,1284.373657 1358.248657,1286.909790 
	C1337.533813,1288.445923 1316.767944,1291.677734 1298.178711,1302.253662 
	C1295.441772,1303.810791 1292.562500,1306.006958 1291.030640,1308.650269 
	C1280.420288,1326.957397 1271.246826,1345.865723 1265.316284,1366.364990 
	C1260.209473,1384.017578 1256.869751,1401.683105 1257.549438,1420.136353 
	C1258.750000,1452.724365 1271.727539,1479.479248 1296.992310,1499.941895 
	C1312.086792,1512.167358 1329.676392,1519.484985 1348.479004,1524.409790 
	C1371.942749,1530.555542 1395.791870,1531.580322 1419.732056,1530.564209 
	C1433.643066,1529.973877 1447.489014,1527.613647 1461.336426,1525.833740 
	C1473.411011,1524.281860 1484.876343,1524.974609 1495.968628,1531.031860 
	C1507.742310,1537.461426 1513.411621,1547.761230 1515.622925,1560.060791 
	C1517.793091,1572.132080 1518.049927,1584.551880 1520.302612,1596.602539 
	C1521.988770,1605.622681 1524.593384,1614.729126 1528.470825,1623.009644 
	C1532.414185,1631.431152 1539.855347,1635.810303 1549.858398,1636.573120 
	C1567.371338,1637.908325 1583.383423,1632.573975 1598.833374,1626.032227 
	C1626.984375,1614.112915 1653.976074,1599.771118 1679.847656,1583.388306 
	C1682.119995,1581.949463 1685.126221,1581.669312 1688.603394,1580.601685 
	C1689.308105,1589.494751 1690.109131,1597.041016 1690.463013,1604.608276 
	C1691.176147,1619.853027 1695.774658,1633.873901 1703.312378,1647.009399 
	C1708.187378,1655.505005 1714.757202,1662.054199 1723.946411,1666.102173 
	C1740.938599,1673.587280 1758.166382,1675.918335 1776.400146,1671.171753 
	C1786.340576,1668.584106 1796.666870,1667.517822 1806.720947,1665.317261 
	C1817.737671,1662.905884 1828.527222,1659.304688 1839.619629,1657.424072 
	C1859.209839,1654.102783 1878.880859,1650.708618 1898.659058,1649.227783 
	C1913.196045,1648.139282 1926.880859,1652.944946 1940.491821,1659.215698 
	C1954.397095,1665.622192 1969.679810,1669.743408 1986.655762,1670.032104 
	C1986.877930,1666.989502 1987.459351,1664.141724 1987.230591,1661.360596 
	C1985.272705,1637.560547 1991.295410,1615.723633 2004.869385,1596.414062 
	C2010.366455,1588.594604 2017.001221,1580.980957 2026.490479,1576.989868 
	C2034.660645,1573.553589 2036.295654,1574.552490 2037.056885,1583.112427 
	C2038.204956,1596.023804 2039.085205,1609.016235 2041.352051,1621.747681 
	C2042.583984,1628.667480 2045.973999,1635.358643 2049.210693,1641.736816 
	C2058.606445,1660.251709 2077.061768,1663.404785 2094.420654,1660.006226 
	C2099.600098,1658.992188 2104.886230,1657.560303 2109.554932,1655.196655 
	C2113.520264,1653.189331 2116.857178,1649.760010 2120.109863,1646.588379 
	C2122.372559,1644.382324 2124.021729,1641.546753 2127.040527,1637.537109 
	C2129.801758,1644.412720 2132.029053,1649.958618 2135.033691,1657.440308 
	C2139.312012,1642.712036 2134.788330,1629.022827 2138.169922,1616.232544 
	C2147.342773,1616.261719 2153.757812,1622.442627 2157.596191,1631.736206 
	C2161.530029,1641.260864 2162.419434,1650.793213 2161.618164,1660.793945 
	C2161.436523,1663.063721 2161.956055,1665.389526 2162.306885,1669.493896 
	C2165.176514,1667.727051 2167.700928,1666.944092 2168.986572,1665.231201 
	C2172.321289,1660.788574 2175.293457,1656.043091 2178.084229,1651.229614 
	C2187.250732,1635.419067 2194.061035,1632.525879 2211.061523,1637.471802 
	C2231.958008,1643.551025 2252.798340,1649.839844 2273.798828,1655.536133 
	C2280.082031,1657.240234 2286.846680,1658.166870 2293.990234,1655.086792 
	C2293.553467,1650.544800 2293.053955,1646.024536 2292.694580,1641.493042 
	C2291.353760,1624.581787 2289.691650,1607.683960 2288.909424,1590.746094 
	C2288.544922,1582.846802 2289.456543,1574.797241 2290.648926,1566.946289 
	C2291.619385,1560.557983 2296.897461,1557.993408 2303.298828,1559.398193 
	C2311.123535,1561.115112 2315.540771,1566.596069 2319.332275,1573.036377 
	C2329.013672,1589.481567 2330.151367,1607.527466 2328.860107,1625.845215 
	C2328.234375,1634.720215 2326.365479,1643.527344 2324.741943,1652.306396 
	C2323.240234,1660.427368 2325.948975,1667.610229 2330.182373,1673.923950 
	C2334.753662,1680.741943 2341.121826,1685.872070 2348.163330,1690.537964 
	C2363.714844,1700.843140 2381.339844,1704.218018 2399.010986,1705.267578 
	C2417.521973,1706.366943 2436.046875,1703.264404 2453.525879,1696.075317 
	C2455.042236,1695.451782 2456.568848,1694.801270 2458.151611,1694.411499 
	C2459.058105,1694.188110 2460.088135,1694.466064 2461.583008,1694.546265 
	C2462.338623,1700.505005 2461.807373,1705.935791 2459.553467,1711.756348 
	C2455.263672,1722.834717 2451.423340,1733.957397 2445.451660,1744.404419 
	C2433.732178,1764.907349 2417.427246,1780.763672 2397.932861,1793.455933 
	C2379.607666,1805.386841 2359.229980,1813.099121 2338.092529,1817.944580 
	C2298.650391,1826.986206 2258.722168,1830.139771 2218.362061,1824.490845 
	C2202.239746,1822.234375 2185.911377,1821.254883 2169.907227,1818.402222 
	C2153.292969,1815.440796 2136.919189,1811.070923 2120.513916,1807.017822 
	C2110.554443,1804.557251 2100.639893,1801.819336 2090.896729,1798.622559 
	C2086.658203,1797.231812 2082.563477,1794.820801 2078.982910,1792.108032 
	C2063.692139,1780.522583 2047.697510,1771.849609 2027.441650,1772.917114 
	C2010.546875,1773.807495 1998.109009,1782.080322 1987.435303,1793.850830 
	C1976.113525,1806.335571 1968.126953,1821.003906 1961.501953,1836.433350 
	C1955.404541,1850.634399 1948.228271,1864.474243 1943.393921,1879.090576 
	C1936.932129,1898.627441 1931.758911,1918.836792 1932.690430,1939.611694 
	C1933.295410,1953.107544 1936.211792,1966.538086 1938.609619,1979.905151 
	C1941.364868,1995.264771 1945.960815,2010.404053 1947.396973,2025.858398 
	C1948.719727,2040.092285 1945.607666,2054.618896 1938.677368,2067.276855 
	C1928.290527,2086.248291 1916.728516,2104.586182 1905.399048,2123.029297 
	C1888.234497,2150.971436 1870.044800,2178.302979 1855.425171,2207.743164 
	C1854.264404,2210.080811 1853.252441,2212.492188 1851.825317,2215.629639 
	C1848.962524,2212.371094 1850.004028,2209.191895 1850.623169,2206.282471 
	C1853.031738,2194.964600 1855.528076,2183.663818 1858.154297,2172.394531 
	C1859.488892,2166.666748 1861.315918,2161.053955 1862.666748,2155.329346 
	C1867.524048,2134.746582 1872.850708,2114.249023 1876.838501,2093.496338 
	C1879.082764,2081.816162 1879.948120,2069.691895 1879.859863,2057.779541 
	C1879.670166,2032.154297 1878.656494,2006.528320 1877.557617,1980.920898 
	C1877.202515,1972.644165 1876.321167,1964.206055 1874.138916,1956.265381 
	C1872.961548,1951.981567 1869.173950,1947.689575 1865.419556,1944.996948 
	C1858.536133,1940.060425 1850.324707,1937.904907 1841.817993,1939.773315 
	C1839.379395,1940.308838 1836.492188,1942.653687 1835.431641,1944.925659 
	C1831.416504,1953.526855 1827.195679,1962.195435 1824.657959,1971.287109 
	C1820.050293,1987.793457 1816.590576,2004.620361 1812.660522,2021.315430 
	C1812.508057,2021.962524 1812.416748,2022.627808 1812.347168,2023.290039 
	C1810.927979,2036.795654 1808.574829,2050.282471 1808.295044,2063.812012 
	C1807.675781,2093.765381 1807.626465,2123.750732 1808.271240,2153.702881 
	C1808.670288,2172.238770 1810.260010,2190.795166 1812.299561,2209.233154 
	C1813.531250,2220.366211 1816.849487,2231.253662 1818.865601,2242.317871 
	C1821.187866,2255.062012 1826.302368,2266.717773 1831.622681,2278.388428 
	C1833.070190,2281.563721 1833.262817,2285.549561 1833.183105,2289.144775 
	C1832.562988,2317.110840 1831.808105,2345.074707 1830.939453,2373.034424 
	C1830.547241,2385.657471 1830.346802,2398.329346 1828.971558,2410.859863 
	C1828.344116,2416.576416 1830.446289,2420.389160 1833.347290,2424.410889 
	C1843.004272,2437.798584 1851.514038,2451.737305 1858.391846,2466.885254 
	C1865.658569,2482.889893 1867.388062,2499.452148 1866.447632,2516.378174 
	C1865.417358,2534.925781 1864.119263,2553.578369 1861.051025,2571.868652 
	C1854.350952,2611.810791 1853.751587,2652.002686 1854.490356,2692.254883 
	C1854.849731,2711.832764 1856.480713,2731.422363 1858.356079,2750.927734 
	C1860.545776,2773.704346 1863.325928,2796.436279 1866.423828,2819.109375 
	C1868.891724,2837.172363 1872.516724,2855.075928 1875.064331,2873.129883 
	C1876.784302,2885.318604 1883.793579,2893.990723 1892.990723,2900.709473 
	C1906.052490,2910.251221 1919.465088,2919.479004 1933.505615,2927.475342 
	C1953.724854,2938.990479 1974.497559,2949.573242 1995.371460,2959.869873 
	C2000.178711,2962.241211 2006.349731,2962.537598 2011.904053,2962.587891 
	C2040.234131,2962.844727 2068.569336,2962.523193 2096.899658,2962.755859 
	C2131.850098,2963.042725 2166.797607,2963.668457 2201.746338,2964.161621 
	C2234.381104,2964.622070 2267.016357,2965.088135 2299.650879,2965.574951 
	C2323.961426,2965.937256 2348.275146,2966.181641 2372.580811,2966.756348 
	C2406.850830,2967.566162 2441.129883,2968.265381 2475.376465,2969.696533 
	C2506.913330,2971.014160 2538.423096,2973.076416 2569.921143,2975.166748 
	C2578.463623,2975.733643 2586.920166,2977.590332 2595.845947,2978.919189 
	C2595.840088,2983.837646 2592.913330,2985.242188 2588.960693,2985.508301 
	C2566.413330,2987.025635 2543.872803,2988.669434 2521.312500,2989.968506 
	C2499.077637,2991.249023 2476.827393,2992.287842 2454.574219,2993.203369 
	C2442.260010,2993.710205 2429.927002,2993.820312 2417.600830,2993.979248 
	C2395.946533,2994.258545 2374.282959,2994.149658 2352.637939,2994.738525 
	C2329.735107,2995.360840 2306.848877,2996.607910 2283.955566,2997.580566 
	C2281.293701,2997.693359 2278.631836,2997.878662 2275.969482,2997.889648 
	C2230.310547,2998.079590 2184.651367,2998.229004 2138.992432,2998.425049 
	C2081.010498,2998.674072 2022.977905,2997.543213 1965.061157,2999.622803 
	C1906.755493,3001.716309 1848.450684,3001.797119 1790.236816,3000.443359 
	C1733.272461,2999.118408 1676.342285,2999.999023 1619.402832,2999.269531 
	C1567.095093,2998.599365 1514.781616,2998.387695 1462.471558,2997.882080 
	C1443.487671,2997.698486 1424.394409,2998.442139 1405.547119,2996.673340 
	C1365.341309,2992.901123 1325.056519,2995.047363 1284.844971,2993.465576 
	C1249.627441,2992.080078 1214.424683,2990.282715 1179.227661,2988.433594 
	C1168.615234,2987.875977 1158.036865,2986.603271 1147.456299,2985.526367 
	C1142.005981,2984.971436 1142.019287,2984.840332 1138.448120,2978.671631 
	C1152.519043,2977.119141 1166.229858,2975.179199 1180.008789,2974.205322 
	C1193.948608,2973.220459 1208.042969,2974.029297 1221.917114,2972.586426 
	C1264.015381,2968.209473 1306.258423,2969.064941 1348.451538,2968.177734 
	C1405.716064,2966.973389 1462.984253,2965.932129 1520.254028,2965.011230 
	C1550.896118,2964.518555 1581.545166,2964.471191 1612.190186,2964.138428 
	C1652.139282,2963.704590 1692.087158,2963.129639 1732.036865,2962.767090 
	C1738.263306,2962.710449 1742.936523,2961.537598 1747.550049,2956.237061 
	C1753.266113,2949.669678 1761.015625,2944.813477 1768.111084,2939.518555 
	C1779.574219,2930.964355 1786.092163,2920.488281 1782.904419,2905.552246 
	C1780.341797,2893.545166 1778.343750,2881.413574 1775.616821,2869.446289 
	C1771.219604,2850.149658 1766.894409,2830.814697 1761.660889,2811.736816 
	C1757.221191,2795.552246 1751.500366,2779.720215 1746.422974,2763.708252 
	C1743.320679,2753.925293 1740.583984,2744.021973 1737.289551,2734.306152 
	C1732.108643,2719.025635 1726.423584,2703.915283 1721.284668,2688.621338 
	C1717.930908,2678.640137 1715.115601,2668.476318 1712.151123,2658.367188 
	C1708.725586,2646.686523 1705.244141,2635.018555 1702.069092,2623.268799 
	C1697.223022,2605.335693 1692.965088,2587.315430 1690.797852,2568.765869 
	C1688.746338,2551.206543 1686.937134,2533.702637 1687.574219,2516.011719 
	C1687.680298,2513.063721 1687.852295,2510.117920 1688.102539,2504.909180 
	C1707.605225,2547.802979 1725.974487,2588.718262 1744.785156,2629.429932 
	C1763.572876,2670.092285 1782.802734,2710.550049 1802.515869,2752.539795 
	C1803.456421,2749.786621 1804.421875,2748.366455 1804.320923,2747.026367 
	C1803.696899,2738.744629 1802.877197,2730.476318 1802.024780,2722.213867 
	C1801.717529,2719.236328 1801.007568,2716.299805 1800.706909,2713.321777 
	C1798.740112,2693.840820 1797.134766,2674.318359 1794.826538,2654.878662 
	C1792.436768,2634.752686 1789.776733,2614.640381 1786.464111,2594.649658 
	C1784.685791,2583.918457 1781.288330,2573.455322 1778.563965,2562.038818 
M736.903442,1303.489746 
	C761.136047,1289.515381 787.480835,1280.466064 813.653381,1270.881592 
	C801.939270,1271.668457 790.259827,1272.268555 778.938843,1274.605103 
	C760.517822,1278.407471 742.122131,1282.310181 724.411255,1289.207153 
	C704.828796,1296.832886 686.706238,1306.195312 672.230347,1321.857056 
	C657.010681,1338.323486 652.585876,1358.408813 664.342773,1378.903687 
	C665.335144,1377.968262 666.312500,1377.160156 667.149841,1376.226562 
	C668.029602,1375.245728 669.009766,1374.251953 669.545471,1373.080811 
	C683.562744,1342.432861 707.849243,1321.667603 736.903442,1303.489746 
z"/>
<path fill="#F8F8F8" opacity="1.000000" stroke="none" 
	d="
M1574.653809,831.983093 
	C1557.535767,832.146179 1541.283936,830.308777 1525.060181,833.841492 
	C1518.519775,835.265564 1513.175415,830.823059 1509.912354,824.826721 
	C1506.684326,818.894470 1506.328979,812.902954 1510.167725,807.092285 
	C1515.877686,798.449280 1524.209106,794.332764 1534.346680,794.069458 
	C1544.620483,793.802612 1554.906616,794.010559 1566.451416,794.010559 
	C1566.003052,787.419495 1566.125977,781.194946 1565.072021,775.176453 
	C1561.244263,753.319702 1561.310791,731.531555 1564.974487,709.682983 
	C1566.834717,698.590698 1567.713623,687.278137 1570.389771,676.398193 
	C1572.159180,669.205017 1575.968506,662.403381 1579.575195,655.815552 
	C1581.604736,652.108521 1585.468628,650.563538 1590.364380,652.947083 
	C1594.048584,676.901123 1588.714722,701.473206 1591.995117,725.783325 
	C1597.317383,726.211304 1598.503662,723.635620 1599.941406,720.303345 
	C1604.152954,710.542297 1611.409180,703.554993 1621.415527,699.848145 
	C1625.717285,698.254456 1630.384155,696.967224 1635.171143,701.048584 
	C1631.509766,714.385376 1631.564331,728.312256 1632.187744,742.221313 
	C1632.858765,757.191895 1638.233643,770.804993 1646.981934,782.674133 
	C1657.904053,797.492554 1669.802979,811.592834 1681.325928,825.966492 
	C1696.978760,845.491699 1712.540894,865.091980 1728.391968,884.455383 
	C1743.185791,902.527222 1758.412109,920.244385 1773.253418,938.278015 
	C1788.119385,956.341675 1802.780884,974.574097 1817.428101,992.816101 
	C1819.227783,995.057678 1820.386353,997.814209 1822.259766,1001.054504 
	C1780.910400,1011.155151 1739.500977,1014.722473 1697.069092,1014.473206 
	C1690.816895,1001.223816 1684.616211,988.216492 1678.529175,975.156189 
	C1666.744995,949.872131 1655.069946,924.537109 1643.262207,899.264160 
	C1635.613892,882.893982 1627.979858,866.511719 1619.920776,850.343567 
	C1618.472534,847.438110 1615.264771,845.115479 1612.391357,843.266541 
	C1601.204956,836.068604 1587.786743,835.978516 1574.653809,831.983093 
z"/>
<path fill="#151515" opacity="1.000000" stroke="none" 
	d="
M736.273926,1303.877563 
	C707.849243,1321.667603 683.562744,1342.432861 669.545471,1373.080811 
	C669.009766,1374.251953 668.029602,1375.245728 667.149841,1376.226562 
	C666.312500,1377.160156 665.335144,1377.968262 664.342773,1378.903687 
	C652.585876,1358.408813 657.010681,1338.323486 672.230347,1321.857056 
	C686.706238,1306.195312 704.828796,1296.832886 724.411255,1289.207153 
	C742.122131,1282.310181 760.517822,1278.407471 778.938843,1274.605103 
	C790.259827,1272.268555 801.939270,1271.668457 813.653381,1270.881592 
	C787.480835,1280.466064 761.136047,1289.515381 736.273926,1303.877563 
z"/>
</svg>